<svg width="360" height="145" viewBox="0 0 360 145" fill="none" xmlns="http://www.w3.org/2000/svg">
<path d="M183.037 6.08973C183.279 4.3582 183.909 2.28015 184.436 1.4712C184.963 0.661703 185.883 0 186.481 0C188.414 0 189.507 2.43578 191.005 10.0768C192.53 17.8577 192.739 20.097 193.077 32.1897L193.436 45.0656L194.719 45.2487C195.424 45.3489 196.343 45.1457 196.762 44.7963C197.953 43.8015 203.27 41.9866 204.992 41.9866C207.083 41.9866 211.689 44.3944 213.133 46.2423C214.607 48.1261 214.63 50.6129 213.189 52.0634C211.813 53.4472 210.99 53.4456 206.843 52.0494C203.03 50.7663 196.137 50.5457 194.625 51.6586C193.111 52.7715 192.495 56.0874 192.001 65.779C191.75 70.7054 191.381 75.8054 191.18 77.112C190.807 79.5444 192.521 87.7324 194.022 90.691C195.01 92.6386 198.138 95.5447 200.01 96.2551C202.691 97.2717 207.099 96.9537 210.151 95.524C215.135 93.1889 218.386 87.6646 217.094 83.7246C215.138 77.7608 209.707 76.0209 207.352 80.6031C206.102 83.0366 206.309 83.8903 208.459 85.1673C210.585 86.4285 210.979 87.3321 209.403 87.3321C207.846 87.3321 204.844 83.8522 204.485 81.6331C204.093 79.2041 205.182 76.9345 207.884 74.5475C210.512 72.2259 212.066 71.9068 215.086 73.0673C220.353 75.0911 224.317 80.9759 224.317 86.7723C224.317 91.0051 222.731 94.3786 218.955 98.177C214.914 102.243 207.024 105.806 202.06 105.806C199.943 105.806 194.954 104.483 191.833 103.094C186.431 100.69 181.789 94.4138 180.588 87.8919C180.333 86.5064 180.138 71.895 180.155 55.4223C180.185 26.7751 180.508 19.217 182.011 12.0362C182.333 10.4966 182.795 7.8207 183.037 6.08973Z" fill="white"/>
<path d="M19.2236 8.50872C21.5945 5.79247 25.1611 4.15611 32.6342 2.35684C39.9899 0.585568 49.1055 2.68602 52.8913 7.02351C55.0908 9.54438 57.3943 17.8292 57.3943 23.2214C57.3943 25.8453 57.149 26.5534 55.6428 28.2799C53.2636 31.0062 51.5871 31.7699 47.6572 31.9176C41.574 32.1466 40.8406 31.9983 38.6912 30.0993C36.1791 27.8796 34.9527 25.1925 35.6343 23.3994C36.5012 21.1181 39.31 19.3066 40.9803 19.9509C42.1015 20.3836 42.0314 21.0997 40.7021 22.7998C40.0901 23.583 39.5893 24.6932 39.5893 25.2675C39.5893 27.0909 41.5979 28.5509 44.1062 28.5509C46.0253 28.5509 46.7475 28.1982 48.5575 26.3777C50.4337 24.4894 50.7174 23.8697 50.7174 21.6556C50.7174 15.7192 47.335 12.2438 39.4674 10.0975C37.0382 9.43466 36.6437 9.48057 34.1827 10.7088C28.8256 13.3825 27.3483 17.7754 27.3483 31.0342C27.3483 40.9498 27.863 43.5647 30.0469 44.7409C30.6656 45.074 34.0569 45.3455 37.5962 45.3455C43.8402 45.3455 44.0695 45.3892 45.6575 46.885C48.1513 49.234 48.3204 50.6425 46.348 52.6271C44.3471 54.6402 42.6668 54.741 37.0855 53.183C34.9433 52.5851 32.7705 52.0886 32.2564 52.0796C30.7496 52.0533 29.4276 53.7395 29.8994 55.0858C30.482 56.7496 31.3055 79.0339 31.3595 94.6098C31.4029 107.154 30.8281 116.094 29.703 120.362C28.5201 124.849 23.6727 132.764 20.1623 135.938C18.1164 137.788 11.3577 142.377 8.5918 143.794C6.32722 144.954 2.7779 145.354 0.964566 144.654C-1.24994 143.799 0.55171 140.561 4.30079 138.657C9.36632 136.084 14.9438 128.093 17.0715 120.362C18.2622 116.033 19.0673 101.048 19.1168 82.2937C19.1474 70.6841 18.8342 65.6334 17.3285 53.4629C14.0413 26.8837 14.5921 13.8164 19.2236 8.50872Z" fill="white"/>
<path d="M228.768 27.9351C228.768 24.9871 232.32 21.8392 238.227 19.5506C240.002 18.8626 242.481 18.5653 246.749 18.5273C256.776 18.4388 257.327 19.816 250.055 26.7785C244.242 32.3437 241.071 34.1491 237.105 34.1491C232.516 34.1491 228.768 31.3556 228.768 27.9351Z" fill="white"/>
<path d="M335.128 26.5781C337.729 23.5976 342.016 21.5671 347.561 20.6893C351.298 20.0981 357.285 20.579 358.828 21.5951C360.734 22.8491 360.344 24.2806 357.446 26.6643C355.997 27.8556 353.681 29.9247 352.299 31.2621C345.931 37.4252 339.096 38.1076 334.83 33.0065C332.913 30.714 332.991 29.0273 335.128 26.5781Z" fill="white"/>
<path d="M59.6834 45.6254C58.4782 38.9831 58.3753 38.1009 58.7075 37.2309C59.1837 35.9808 59.8486 36.1891 61.8295 38.2078C63.7174 40.1313 65.8913 44.035 66.5061 46.6051C67.0007 48.6714 68.6566 48.6177 71.8609 46.4316C73.238 45.4922 76.0485 43.8558 78.1066 42.795C81.538 41.0271 82.2535 40.8675 86.7309 40.8742C90.6464 40.8804 92.5137 41.1972 96.1587 42.4742C102.59 44.7263 105.589 47.4426 107.523 52.7676C108.828 56.3589 108.973 63.6774 107.785 65.9889C106.663 68.1728 102.785 71.5642 100.947 71.9689C100.098 72.1565 98.677 72.5405 97.7901 72.8232C93.7556 74.1074 88.5788 72.363 87.0876 69.2168C86.0171 66.9585 86.3982 64.6801 87.9906 63.823C88.9377 63.313 89.1903 63.4904 89.8808 65.1525C90.7443 67.2323 92.2833 68.0339 94.2564 67.4316C97.5842 66.4166 99.2356 62.7912 98.036 59.1345C97.2576 56.7608 93.7411 53.4349 91.4821 52.9356C86.9541 51.9346 77.4884 55.5158 72.8002 60.0028C70.7793 61.9369 70.6502 62.2437 71.0252 64.2137C71.8214 68.3894 71.9895 93.0143 71.2444 96.2892C69.1256 105.604 64.3033 109.485 60.1007 105.256L58.4415 103.587L58.7275 96.9991C58.885 93.3759 59.2967 86.1285 59.6417 80.8941C60.5275 67.4741 60.5475 50.3884 59.6834 45.6254Z" fill="white"/>
<path d="M112.145 48.2661C113.863 44.8725 115.572 43.2994 118.944 42.0112C120.437 41.4408 122.336 40.9498 123.162 40.9201C125.406 40.8406 130.924 42.4065 132.509 43.5726C134.806 45.2615 138.018 50.4516 138.908 53.9102C140.332 59.448 139.99 62.4676 136.869 71.937C132.678 84.6511 132.401 87.102 134.89 89.4549C137.065 91.5106 139.973 92.3705 144.75 92.3705C149.26 92.3705 152.514 91.5016 153.446 90.0483C153.713 89.6318 154.108 85.8906 154.324 81.7339C154.819 72.2141 155.838 64.853 157.503 58.7812C159.75 50.5866 160.314 48.7067 161.077 46.8693C161.967 44.7252 163.687 44.0512 164.609 45.4855C164.857 45.8706 165.238 50.4679 165.458 55.7022C165.838 64.7769 166.182 68.7488 167.52 79.4946C168.473 87.1558 170.08 96.5238 170.579 97.3361C170.738 97.5953 170.915 99.2664 170.973 101.049C171.057 103.637 170.871 104.444 170.049 105.049C168.018 106.543 165.61 105.969 161.826 103.087C159.862 101.592 157.975 100.193 157.631 99.9801C157.288 99.7663 155.887 100.252 154.518 101.059C149.705 103.897 146.61 104.687 140.299 104.687C133.711 104.687 130.502 103.808 126.19 100.823C123.269 98.8006 121.269 95.6387 120.224 91.3908C119.171 87.1048 120.012 83.939 125.322 72.2169C127.432 67.557 127.842 66.2476 129.21 59.8029C130.48 53.8212 129.116 49.9652 125.003 47.9112C120.747 45.7861 117.856 47.0653 116.027 51.8842C115.276 53.8649 115.222 54.6128 115.751 55.78C116.427 57.2725 117.22 57.3447 120.742 56.234C122.901 55.5539 122.013 57.7674 119.664 58.9234C117.913 59.785 117.401 59.8152 115.491 59.1669C113.781 58.587 113.049 57.8945 112.084 55.9457C110.503 52.7508 110.513 51.4929 112.145 48.2661Z" fill="white"/>
<path d="M261.048 44.0479C262.727 43.539 264.976 43.0234 266.047 42.9019C272.858 42.1277 280.226 43.9146 283.012 47.0166C285.105 49.3471 285.969 49.4804 288.147 47.8093C291.595 45.1636 298.439 43.1225 303.891 43.1135C313.833 43.0978 319.703 47.3547 321.636 55.9821C322.481 59.7547 322.157 87.5241 321.208 92.6504C320.866 94.4978 320.376 97.1844 320.12 98.6203C318.924 105.314 314.405 106.582 311.079 101.157C310.036 99.4573 309.993 98.5207 310.202 82.2937C310.323 72.9027 310.6 64.3246 310.817 63.2318C311.076 61.928 310.882 60.0985 310.252 57.9135C308.964 53.4456 306.396 50.8681 301.936 49.5654C298.793 48.6473 298.368 48.6451 294.702 49.5262C287.869 51.1688 287.017 52.4435 289.367 57.5015C293.375 66.1277 293.015 75.1045 287.833 95.786C286.031 102.98 285.439 104.392 283.876 105.234C281.316 106.612 279.301 105.152 277.725 100.776C276.711 97.9603 276.619 96.2668 276.619 80.4284C276.619 61.9756 276.385 59.963 273.679 55.1564C272.711 53.4372 271.805 52.6988 269.697 51.9117C267.166 50.9656 266.724 50.9538 263.587 51.7454C258.262 53.0884 255.868 56.7009 256.842 61.9229C257.583 65.9021 261.743 67.9533 264.623 65.7611C266.08 64.6532 266.604 64.7265 266.604 66.0387C266.604 67.5519 262.909 69.9776 260.604 69.9776C258.353 69.9776 256.238 68.9185 254.275 66.8085C247.777 59.8219 251.621 46.9046 261.048 44.0479Z" fill="white"/>
<path d="M232.182 47.3351C232.857 46.4719 234.681 45.1692 236.236 44.4408C239.547 42.8901 239.145 42.9618 240.476 43.6789C242.164 44.5875 242.882 46.4209 243.429 51.2236C244.509 60.688 243.808 75.1084 241.893 82.8535C241.398 84.8549 240.77 87.626 240.498 89.0116C239.206 95.5861 238.669 98.3427 238.468 99.4175C238.219 100.762 236.16 103.567 235.424 103.567C234.655 103.567 233.618 101.306 233.111 98.5285C232.859 97.143 232.37 94.4978 232.024 92.6504C231.663 90.7185 231.302 80.7116 231.176 69.0982C230.955 48.9619 230.958 48.9009 232.182 47.3351Z" fill="white"/>
<path d="M335.835 52.3136C336.218 50.7758 339.919 47.0653 341.997 46.136C344.169 45.1641 344.116 45.1597 345.781 46.4775C348.273 48.4497 348.952 52.289 348.952 64.4007C348.952 70.3214 348.723 76.0769 348.444 77.1904C347.959 79.1218 347.672 80.5157 346.178 88.1718C345.818 90.0192 345.314 92.5384 345.057 93.77C344.801 95.0016 344.279 97.5208 343.897 99.3682C342.917 104.106 341.934 105.917 340.455 105.701C339.224 105.522 339.124 105.264 337.786 98.8084C336.563 92.913 336.05 85.3744 335.804 69.6977C335.663 60.7686 335.677 52.9456 335.835 52.3136Z" fill="white"/>
</svg>
