<svg width="130" height="35" viewBox="0 0 130 35" fill="none" xmlns="http://www.w3.org/2000/svg">
<path fill-rule="evenodd" clip-rule="evenodd" d="M16.7842 0.112127C16.649 0.170579 16.3556 0.222235 16.1322 0.227055C15.6345 0.237683 13.3731 0.987065 12.504 1.42935C11.4161 1.98299 10.139 2.91353 9.27544 3.78168C8.4249 4.63672 7.18505 6.40377 6.90367 7.1618C6.81652 7.3966 6.65942 7.78328 6.55456 8.02117C5.98405 9.31455 5.72406 11.5663 5.96242 13.1497C6.17484 14.5618 6.97854 16.4944 7.80695 17.5853C8.37574 18.3344 9.41484 19.3791 10.1611 19.9516C10.8425 20.4745 12.6081 21.3757 13.4037 21.6067C13.708 21.695 14.1173 21.8164 14.3133 21.8765C14.8163 22.0304 17.3421 22.0123 18.0425 21.8495C19.2575 21.5671 19.6401 21.4319 20.6643 20.9228C23.0529 19.7358 24.533 18.1073 25.339 15.7791C25.6562 14.8632 25.6932 14.5946 25.6932 13.2115C25.6932 11.8382 25.6549 11.5563 25.3485 10.6714C24.9492 9.51833 24.4904 8.80207 23.5373 7.84384C22.5841 6.88561 21.8716 6.42441 20.7246 6.02303C19.8834 5.72854 19.5405 5.67651 18.4438 5.67651C17.347 5.67651 17.0042 5.72854 16.163 6.02303C14.1131 6.7404 12.8509 8.02636 12.1167 10.1456C11.6822 11.3997 11.9817 13.6261 12.6932 14.4319C13.9756 15.8844 14.7369 16.301 16.1081 16.301C16.9118 16.301 17.2096 16.2447 17.6795 16.0044C18.3105 15.6815 19.1137 14.9375 19.3603 14.4473C19.5754 14.0197 19.6933 12.8679 19.5322 12.7678C19.4615 12.7238 19.143 12.946 18.8245 13.2615C18.2516 13.8286 17.2536 14.3249 16.6907 14.3225C16.3011 14.3207 15.2363 13.7934 14.9172 13.4441C14.2111 12.6712 13.9131 11.0283 14.3082 10.0872C14.5503 9.51067 15.5808 8.52537 16.2925 8.18973C17.0804 7.81838 18.5646 7.78724 19.5713 8.12115C20.2277 8.33877 21.4454 9.18083 21.9537 9.76845C22.7264 10.6616 23.732 12.962 23.7283 13.8279C23.723 15.0676 22.2822 17.5762 21.1118 18.3835C19.0359 19.8154 16.9402 20.2802 14.9147 19.7577C13.4278 19.3741 12.0548 18.663 11.0597 17.7612C10.6311 17.3726 9.5508 15.9631 9.29376 15.4568C8.88589 14.6539 8.55349 13.4543 8.28354 11.812C8.15704 11.0419 8.72473 8.64796 9.3138 7.46704C9.71737 6.65822 10.6563 5.33642 11.258 4.73014C12.8907 3.08494 15.6024 2.03489 18.1979 2.04255C22.7242 2.05602 26.3494 4.34099 28.3072 8.4144C28.6116 9.04774 28.9279 9.87176 29.0103 10.2456C29.0925 10.6194 29.2103 11.1263 29.2721 11.3721C29.3338 11.6179 29.3826 12.5633 29.3806 13.473C29.3776 14.8089 29.3221 15.329 29.0922 16.1774C28.1906 19.5058 25.5212 22.6824 22.2266 24.3477C18.7755 26.092 14.639 26.3275 11.4369 24.962C11.1326 24.8323 10.6927 24.6541 10.4591 24.5662C9.60206 24.2434 7.88181 22.9746 6.72629 21.8129C4.62238 19.6979 3.44621 17.6026 2.78744 14.7963C2.68652 14.3665 2.56519 13.8479 2.51774 13.644C2.47029 13.4401 2.39715 12.3323 2.3551 11.1824C2.30114 9.70469 2.23476 9.07691 2.12879 9.04169C1.57992 8.85879 0.404242 12.796 0.108847 15.8066C-0.148441 18.4269 0.0491035 20.6628 0.715249 22.6742C1.7058 25.6649 4.03872 28.7253 6.90687 30.7969C8.15692 31.6997 11.7317 33.5895 12.9509 33.992C16.8979 35.2949 20.1602 35.3322 24.052 34.1187C24.8124 33.8816 27.1328 32.597 28.215 31.814C29.4559 30.9162 30.5362 29.9151 31.353 28.906C31.6557 28.5322 32.0482 28.0668 32.2252 27.8718C32.6119 27.4458 33.9409 25.2355 34.2782 24.4572C34.8619 23.1105 34.9625 22.8522 35.3136 21.8002C35.734 20.5408 35.8506 20.0173 36.0426 18.5254C36.2148 17.1875 36.2241 15.5739 36.065 14.6637C35.8144 13.2316 35.6574 13.484 34.979 16.4091C34.4826 18.5489 34.0326 19.8112 33.0949 21.6927C32.0814 23.7268 31.1402 25.0449 29.6148 26.5666C27.9506 28.2269 25.3116 29.9255 23.4845 30.5123C22.8609 30.7126 20.8375 31.2285 19.8574 31.4371C18.2828 31.7724 14.4706 31.8986 13.0309 31.6632C12.5892 31.5909 11.8912 31.361 11.4799 31.1523C10.1992 30.5023 9.74072 29.6866 10.167 28.8163C10.5107 28.1143 11.0675 27.8516 12.1609 27.8752C12.6605 27.8861 13.2975 27.9591 13.5764 28.0376C13.9135 28.1325 14.8462 28.1616 16.356 28.1241C19.0111 28.0584 20.1394 27.8952 21.4555 27.3871C21.7259 27.2827 22.1845 27.1085 22.4744 27C24.114 26.3873 26.6007 24.7713 27.4785 23.7482C29.402 21.506 30.721 18.8217 31.2292 16.1156C31.3058 15.7078 31.4199 15.173 31.4827 14.9272C31.6409 14.3086 31.6264 11.1187 31.4621 10.4018C30.7403 7.25276 29.3057 4.7839 27.2111 3.08679C25.5803 1.76536 23.598 0.816773 21.517 0.362003C21.1451 0.280812 20.6408 0.163535 20.3963 0.101375C19.8414 -0.0395046 17.1165 -0.0313485 16.7842 0.112127Z" fill="white"/>
<path d="M87.0659 1.46434C87.1246 1.04798 87.2775 0.548287 87.4052 0.353768C87.533 0.159114 87.7563 2.55217e-10 87.9014 2.55217e-10C88.3704 2.55217e-10 88.6356 0.585712 88.9989 2.42308C89.3689 4.2941 89.4198 4.83256 89.5016 7.74039L89.5888 10.8365L89.9 10.8806C90.0712 10.9047 90.2942 10.8558 90.3957 10.7718C90.6847 10.5326 91.9747 10.0962 92.3925 10.0962C92.8997 10.0962 94.0173 10.6751 94.3677 11.1195C94.7252 11.5725 94.7309 12.1704 94.3811 12.5192C94.0474 12.852 93.8476 12.8516 92.8415 12.5159C91.9164 12.2073 90.2442 12.1543 89.8772 12.4219C89.51 12.6895 89.3605 13.4868 89.2407 15.8173C89.1798 17.0019 89.0902 18.2283 89.0416 18.5425C88.951 19.1274 89.3668 21.0963 89.731 21.8077C89.9707 22.276 90.7295 22.9748 91.1838 23.1456C91.8342 23.3901 92.9037 23.3136 93.6442 22.9698C94.8534 22.4083 95.6421 21.08 95.3286 20.1325C94.854 18.6985 93.5365 18.2801 92.965 19.3819C92.6617 19.9671 92.7119 20.1724 93.2337 20.4794C93.7493 20.7827 93.8449 21 93.4626 21C93.0849 21 92.3565 20.1632 92.2695 19.6296C92.1745 19.0455 92.4387 18.4998 93.0942 17.9258C93.7318 17.3675 94.1087 17.2908 94.8414 17.5699C96.1194 18.0565 97.081 19.4716 97.081 20.8654C97.081 21.8832 96.6963 22.6944 95.7802 23.6078C94.7997 24.5856 92.8855 25.4423 91.6812 25.4423C91.1674 25.4423 89.9571 25.1242 89.1998 24.7901C87.8894 24.2121 86.763 22.7029 86.4717 21.1346C86.4097 20.8014 86.3625 17.288 86.3667 13.3269C86.3739 6.43839 86.4524 4.62094 86.8169 2.89423C86.895 2.52404 87.0071 1.88058 87.0659 1.46434Z" fill="white"/>
<path d="M47.322 2.04602C47.8972 1.39287 48.7625 0.999384 50.5756 0.56673C52.3602 0.140807 54.5718 0.645883 55.4903 1.68888C56.024 2.29506 56.5829 4.28723 56.5829 5.58385C56.5829 6.21479 56.5233 6.38508 56.1579 6.80023C55.5807 7.45581 55.1739 7.63942 54.2205 7.67496C52.7446 7.73002 52.5667 7.69434 52.0452 7.23773C51.4357 6.70398 51.1381 6.05783 51.3035 5.62665C51.5138 5.0781 52.1953 4.64248 52.6005 4.79742C52.8725 4.90148 52.8555 5.07365 52.533 5.48248C52.3845 5.67081 52.2631 5.93775 52.2631 6.07587C52.2631 6.51431 52.7504 6.86539 53.3589 6.86539C53.8245 6.86539 53.9997 6.78058 54.4389 6.34281C54.8941 5.88875 54.9629 5.73973 54.9629 5.20733C54.9629 3.77987 54.1423 2.94417 52.2335 2.42806C51.6441 2.26867 51.5484 2.27971 50.9513 2.57506C49.6516 3.21798 49.2932 4.27431 49.2932 7.46254C49.2932 9.84685 49.4181 10.4756 49.9479 10.7585C50.098 10.8386 50.9208 10.9038 51.7795 10.9038C53.2944 10.9038 53.35 10.9143 53.7353 11.274C54.3403 11.8389 54.3814 12.1776 53.9028 12.6548C53.4174 13.1389 53.0097 13.1631 51.6556 12.7885C51.1359 12.6447 50.6087 12.5253 50.484 12.5231C50.1184 12.5168 49.7977 12.9223 49.9121 13.246C50.0535 13.6461 50.2533 19.0046 50.2664 22.75C50.2769 25.7665 50.1374 27.9161 49.8645 28.9423C49.5775 30.0214 48.4014 31.9246 47.5497 32.6878C47.0534 33.1328 45.4136 34.2362 44.7425 34.5769C44.1931 34.8558 43.332 34.9521 42.8921 34.7837C42.3548 34.5781 42.7919 33.7995 43.7015 33.3415C44.9305 32.723 46.2836 30.8015 46.7999 28.9423C47.0887 27.9015 47.2841 24.2982 47.2961 19.7885C47.3035 16.9968 47.2275 15.7823 46.8622 12.8558C46.0647 6.4645 46.1983 3.32231 47.322 2.04602Z" fill="white"/>
<path d="M98.1609 6.71731C98.1609 6.00842 99.0226 5.25148 100.456 4.70117C100.887 4.53573 101.488 4.46425 102.523 4.4551C104.956 4.43383 105.09 4.76498 103.326 6.43919C101.915 7.77741 101.146 8.21154 100.184 8.21154C99.0703 8.21154 98.1609 7.53981 98.1609 6.71731Z" fill="white"/>
<path d="M123.966 6.391C124.597 5.67431 125.637 5.18606 126.982 4.97498C127.889 4.83283 129.341 4.94846 129.716 5.19279C130.178 5.49433 130.083 5.83854 129.38 6.41173C129.029 6.69819 128.467 7.19573 128.132 7.51733C126.587 8.99931 124.928 9.16341 123.893 7.93679C123.428 7.38554 123.447 6.97994 123.966 6.391Z" fill="white"/>
<path d="M57.1382 10.9712C56.8458 9.37394 56.8208 9.16179 56.9014 8.9526C57.017 8.652 57.1783 8.70208 57.6589 9.1875C58.1169 9.65004 58.6443 10.5887 58.7935 11.2067C58.9135 11.7036 59.3153 11.6907 60.0927 11.165C60.4268 10.9391 61.1087 10.5456 61.608 10.2905C62.4405 9.86542 62.6141 9.82706 63.7004 9.82867C64.6504 9.83015 65.1034 9.90635 65.9877 10.2134C67.5481 10.755 68.2756 11.4081 68.745 12.6886C69.0615 13.5521 69.0968 15.312 68.8086 15.8678C68.5361 16.3929 67.5954 17.2084 67.1495 17.3058C66.9435 17.3508 66.5987 17.4432 66.3835 17.5112C65.4047 17.82 64.1487 17.4005 63.7869 16.644C63.5272 16.1009 63.6197 15.5531 64.006 15.347C64.2358 15.2243 64.2971 15.267 64.4646 15.6667C64.6741 16.1668 65.0475 16.3595 65.5262 16.2147C66.3336 15.9706 66.7342 15.0989 66.4432 14.2196C66.2543 13.6488 65.4012 12.849 64.8531 12.729C63.7545 12.4883 61.458 13.3494 60.3206 14.4283C59.8303 14.8934 59.7989 14.9672 59.8899 15.4409C60.0831 16.445 60.1239 22.3663 59.9431 23.1538C59.4291 25.3937 58.2591 26.3269 57.2395 25.3101L56.8369 24.9087L56.9063 23.3245C56.9445 22.4533 57.0444 20.7106 57.1281 19.4519C57.343 16.2249 57.3479 12.1165 57.1382 10.9712Z" fill="white"/>
<path d="M69.8664 11.6061C70.283 10.7901 70.6977 10.4118 71.5157 10.1021C71.8781 9.96491 72.3388 9.84685 72.5392 9.83971C73.0835 9.8206 74.4224 10.1971 74.807 10.4775C75.3643 10.8837 76.1436 12.1317 76.3594 12.9633C76.7049 14.2949 76.622 15.0211 75.8647 17.2981C74.8479 20.3553 74.7807 20.9447 75.3847 21.5105C75.9123 22.0048 76.6178 22.2115 77.7769 22.2115C78.871 22.2115 79.6606 22.0026 79.8866 21.6532C79.9514 21.553 80.0472 20.6534 80.0996 19.6538C80.2196 17.3647 80.467 15.5947 80.8709 14.1346C81.416 12.1641 81.5528 11.7121 81.738 11.2703C81.954 10.7547 82.3711 10.5926 82.5949 10.9375C82.655 11.0301 82.7476 12.1356 82.8008 13.3942C82.893 15.5763 82.9766 16.5314 83.3011 19.1154C83.5325 20.9576 83.9222 23.2103 84.0433 23.4056C84.0819 23.4679 84.125 23.8697 84.139 24.2985C84.1594 24.9208 84.1142 25.1148 83.9148 25.2602C83.4219 25.6195 82.8378 25.4813 81.9197 24.7885C81.4433 24.4289 80.9854 24.0927 80.902 24.0414C80.8187 23.9899 80.4788 24.1068 80.1465 24.3009C78.979 24.9833 78.2282 25.1731 76.6969 25.1731C75.0985 25.1731 74.3201 24.9619 73.2738 24.244C72.5652 23.7577 72.0799 22.9974 71.8265 21.976C71.5708 20.9453 71.7749 20.1841 73.0632 17.3654C73.5752 16.2448 73.6747 15.93 74.0066 14.3803C74.3147 12.9419 73.9837 12.0147 72.9858 11.5208C71.9532 11.0098 71.2519 11.3174 70.8082 12.4762C70.6258 12.9524 70.6129 13.1323 70.7411 13.4129C70.9051 13.7718 71.0975 13.7892 71.952 13.5221C72.4758 13.3586 72.2605 13.8908 71.6904 14.1688C71.2657 14.376 71.1415 14.3832 70.6779 14.2274C70.2633 14.0879 70.0856 13.9214 69.8515 13.4528C69.4679 12.6845 69.4703 12.3821 69.8664 11.6061Z" fill="white"/>
<path d="M105.993 10.5918C106.4 10.4694 106.946 10.3455 107.206 10.3163C108.858 10.1301 110.645 10.5598 111.321 11.3057C111.829 11.8661 112.039 11.8981 112.567 11.4963C113.404 10.8601 115.064 10.3693 116.387 10.3671C118.799 10.3634 120.223 11.387 120.692 13.4615C120.897 14.3687 120.819 21.0462 120.588 22.2788C120.505 22.7231 120.387 23.3691 120.324 23.7144C120.034 25.324 118.938 25.6289 118.131 24.3245C117.878 23.9156 117.867 23.6904 117.918 19.7885C117.948 17.5303 118.015 15.4676 118.067 15.2048C118.13 14.8913 118.083 14.4514 117.93 13.926C117.618 12.8516 116.995 12.2318 115.913 11.9186C115.15 11.6978 115.047 11.6973 114.158 11.9092C112.5 12.3041 112.293 12.6106 112.863 13.8269C113.836 15.9012 113.748 18.0597 112.491 23.0328C112.054 24.7626 111.91 25.1023 111.531 25.3046C110.91 25.6362 110.421 25.2851 110.039 24.2327C109.793 23.5557 109.77 23.1485 109.77 19.3399C109.77 14.9027 109.714 14.4188 109.057 13.263C108.822 12.8496 108.602 12.672 108.091 12.4828C107.477 12.2553 107.37 12.2524 106.609 12.4428C105.317 12.7657 104.736 13.6344 104.972 14.8901C105.152 15.8469 106.161 16.3402 106.86 15.813C107.213 15.5466 107.341 15.5642 107.341 15.8798C107.341 16.2436 106.444 16.8269 105.885 16.8269C105.339 16.8269 104.826 16.5722 104.349 16.0649C102.773 14.3849 103.705 11.2788 105.993 10.5918Z" fill="white"/>
<path d="M98.9893 11.3823C99.153 11.1747 99.5956 10.8614 99.9727 10.6863C100.776 10.3134 100.679 10.3307 101.002 10.5031C101.411 10.7216 101.585 11.1624 101.718 12.3173C101.98 14.5931 101.81 18.0607 101.345 19.9231C101.225 20.4043 101.073 21.0707 101.007 21.4038C100.693 22.9848 100.563 23.6476 100.514 23.9061C100.454 24.2294 99.9545 24.9038 99.7759 24.9038C99.5893 24.9038 99.3375 24.3601 99.2147 23.6923C99.1534 23.3591 99.0347 22.7231 98.9509 22.2788C98.8633 21.8143 98.7758 19.408 98.745 16.6154C98.6916 11.7735 98.6923 11.7588 98.9893 11.3823Z" fill="white"/>
<path d="M124.137 12.5794C124.23 12.2096 125.128 11.3174 125.632 11.0939C126.159 10.8602 126.146 10.8592 126.55 11.176C127.155 11.6503 127.32 12.5735 127.32 15.4859C127.32 16.9096 127.264 18.2936 127.196 18.5613C127.079 19.0257 127.009 19.3609 126.647 21.2019C126.559 21.6462 126.437 22.2519 126.375 22.5481C126.312 22.8442 126.186 23.45 126.093 23.8942C125.855 25.0335 125.617 25.4688 125.258 25.417C124.959 25.3739 124.935 25.3119 124.61 23.7596C124.314 22.342 124.189 20.5293 124.13 16.7596C124.095 14.6125 124.099 12.7314 124.137 12.5794Z" fill="white"/>
</svg>
