<svg width="24" height="24" viewBox="0 0 24 24" fill="none" xmlns="http://www.w3.org/2000/svg">
<path d="M12 24C18.6274 24 24 18.6274 24 12C24 5.37258 18.6274 0 12 0C5.37258 0 0 5.37258 0 12C0 18.6274 5.37258 24 12 24Z" fill="url(#paint0_linear)"/>
<path d="M17.5647 6.23075C16.1309 6.41225 14.636 6.40592 13.1315 6.26267C11.0304 6.10105 7.95976 5.13135 6.82843 7.07075C5.01099 10.1756 5.90738 14.1505 6.3309 17.6682L12.6467 23.9826C18.7586 23.6581 23.657 18.7604 23.9825 12.6487L17.5647 6.23075Z" fill="url(#paint1_linear)"/>
<path d="M17.5647 6.23075C16.1309 6.41225 14.636 6.40592 13.1315 6.26267C11.0304 6.10105 7.95976 5.13135 6.82843 7.07075C5.01099 10.1756 5.90738 14.1505 6.3309 17.6682L12.6467 23.9826C18.7586 23.6581 23.657 18.7604 23.9825 12.6487L17.5647 6.23075Z" fill="black" fill-opacity="0.22"/>
<path d="M14.7763 5.13135H9.22372C6.96716 5.13135 5.13135 6.96716 5.13135 9.22372V14.7763C5.13135 17.0328 6.96716 18.8687 9.22377 18.8687H14.7763C17.0328 18.8687 18.8688 17.0329 18.8688 14.7763V9.22372C18.8687 6.96716 17.0329 5.13135 14.7763 5.13135ZM17.4868 14.7763C17.4868 16.2733 16.2733 17.4868 14.7763 17.4868H9.22377C7.72686 17.4868 6.51336 16.2733 6.51336 14.7763V9.22377C6.51336 7.72686 7.72686 6.51332 9.22377 6.51332H14.7763C16.2733 6.51332 17.4868 7.72691 17.4868 9.22377V14.7763Z" fill="white"/>
<path d="M12.0001 8.44702C10.041 8.44702 8.44702 10.041 8.44702 12.0001C8.44702 13.959 10.041 15.5529 12.0001 15.5529C13.9591 15.5529 15.5529 13.9591 15.5529 12.0001C15.5529 10.041 13.9591 8.44702 12.0001 8.44702ZM12.0001 14.171C10.801 14.171 9.82899 13.1991 9.82899 12.0001C9.82899 10.801 10.801 9.82899 12.0001 9.82899C13.1991 9.82899 14.171 10.8009 14.171 12.0001C14.171 13.1991 13.1991 14.171 12.0001 14.171Z" fill="white"/>
<path d="M16.411 8.47371C16.411 8.94386 16.0298 9.3251 15.5596 9.3251C15.0895 9.3251 14.7083 8.94386 14.7083 8.47371C14.7083 8.0035 15.0895 7.62231 15.5596 7.62231C16.0299 7.62231 16.411 8.00341 16.411 8.47371Z" fill="#D1D1D1"/>
<path d="M14.7764 5.13135H11.9731V6.51332H14.7764C16.2733 6.51332 17.4868 7.72691 17.4868 9.22377V14.7763C17.4868 16.2733 16.2733 17.4868 14.7764 17.4868H11.9731V18.8687H14.7764C17.0328 18.8687 18.8687 17.0329 18.8687 14.7763V9.22372C18.8687 6.96716 17.0329 5.13135 14.7764 5.13135Z" fill="#D1D1D1"/>
<path d="M12.0001 8.44702C11.991 8.44702 11.9822 8.44768 11.9731 8.44768V9.82965C11.9821 9.82955 11.991 9.82899 12.0001 9.82899C13.1991 9.82899 14.171 10.8009 14.171 12.0001C14.171 13.1991 13.1991 14.171 12.0001 14.171C11.991 14.171 11.9821 14.1704 11.9731 14.1703V15.5523C11.9822 15.5524 11.991 15.5529 12.0001 15.5529C13.9591 15.5529 15.5529 13.9591 15.5529 12.0001C15.5529 10.041 13.9591 8.44702 12.0001 8.44702Z" fill="#D1D1D1"/>
<defs>
<linearGradient id="paint0_linear" x1="12" y1="23.9301" x2="12" y2="0.186412" gradientUnits="userSpaceOnUse">
<stop stop-color="#E09B3D"/>
<stop offset="0.3" stop-color="#C74C4D"/>
<stop offset="0.6" stop-color="#C21975"/>
<stop offset="1" stop-color="#7024C4"/>
</linearGradient>
<linearGradient id="paint1_linear" x1="14.8577" y1="23.9299" x2="14.8577" y2="6.01831" gradientUnits="userSpaceOnUse">
<stop stop-color="#E09B3D"/>
<stop offset="0.3" stop-color="#C74C4D"/>
<stop offset="0.6" stop-color="#C21975"/>
<stop offset="1" stop-color="#7024C4"/>
</linearGradient>
</defs>
</svg>
