<svg width="86" height="86" viewBox="0 0 86 86" fill="none" xmlns="http://www.w3.org/2000/svg">
<path d="M76.824 16.4503H79.4812C80.4081 16.4503 81.1598 15.6986 81.1598 14.7717C81.1598 13.8448 80.4081 13.0931 79.4812 13.0931H73.1026C72.1757 13.0931 71.424 13.8448 71.424 14.7717V21.1504C71.424 22.0773 72.1757 22.8289 73.1026 22.8289C74.0295 22.8289 74.7812 22.0773 74.7812 21.1504V19.3034C79.8743 26.122 82.6428 34.3952 82.6428 43C82.6428 64.8592 64.8592 82.6428 43 82.6428C21.1408 82.6428 3.35717 64.8592 3.35717 43C3.35717 21.1408 21.1408 3.35717 43 3.35717C44.6166 3.35717 46.2437 3.45537 47.8363 3.64891C48.7554 3.76003 49.5935 3.10555 49.7053 2.18518C49.8172 1.26498 49.1619 0.428039 48.2416 0.316246C46.515 0.106422 44.7516 0 43 0C31.5143 0 20.7159 4.47276 12.5944 12.5944C4.47276 20.7159 0 31.5143 0 43C0 54.4857 4.47276 65.2841 12.5944 73.4056C20.7159 81.5272 31.5143 86 43 86C54.4857 86 65.2841 81.5272 73.4056 73.4056C81.5272 65.2841 86 54.4857 86 43C86 33.3077 82.762 24.0029 76.824 16.4503Z" fill="#47A209"/>
<path d="M18.2081 25.3488C17.4247 24.8529 16.3878 25.0863 15.8918 25.8692C12.0598 31.9215 10.3634 39.2002 11.1152 46.3645C11.8781 53.6352 15.1506 60.4915 20.3297 65.6708C26.5799 71.921 34.79 75.0462 43.0003 75.0462C51.2106 75.0462 59.4206 71.9212 65.671 65.6708C78.1715 53.1702 78.1715 32.8301 65.671 20.3297C60.4997 15.1586 53.6546 11.8874 46.3961 11.1186C39.245 10.3607 31.9742 12.0438 25.9244 15.8571C25.14 16.3514 24.9052 17.3879 25.3993 18.1722C25.8937 18.9566 26.9302 19.1914 27.7144 18.6972C39.1184 11.5095 53.7501 13.1567 63.2969 22.7035C74.4886 33.8951 74.4886 52.1051 63.2969 63.2968C52.1055 74.4886 33.8952 74.4886 22.7037 63.2968C13.2888 53.8819 11.617 38.8967 18.7285 27.6652C19.2241 26.8818 18.9913 25.8448 18.2081 25.3488Z" fill="#47A209"/>
<path d="M64.8217 44.7058H66.8917C67.8186 44.7058 68.5703 43.9541 68.5703 43.0272C68.5703 42.1003 67.8186 41.3486 66.8917 41.3486H64.8217C63.8947 41.3486 63.1431 42.1003 63.1431 43.0272C63.1431 43.9541 63.8946 44.7058 64.8217 44.7058Z" fill="#47A209"/>
<path d="M17.4297 42.9728C17.4297 43.8997 18.1814 44.6514 19.1083 44.6514H21.1783C22.1052 44.6514 22.8569 43.8997 22.8569 42.9728C22.8569 42.0459 22.1052 41.2942 21.1783 41.2942H19.1083C18.1814 41.2942 17.4297 42.0457 17.4297 42.9728Z" fill="#47A209"/>
<path d="M44.7058 21.1783V19.1083C44.7058 18.1814 43.9541 17.4297 43.0272 17.4297C42.1003 17.4297 41.3486 18.1814 41.3486 19.1083V21.1783C41.3486 22.1052 42.1003 22.8569 43.0272 22.8569C43.9541 22.8569 44.7058 22.1052 44.7058 21.1783Z" fill="#47A209"/>
<path d="M41.2942 64.8217V66.8917C41.2942 67.8186 42.0459 68.5703 42.9728 68.5703C43.8997 68.5703 44.6514 67.8186 44.6514 66.8917V64.8217C44.6514 63.8947 43.8997 63.1431 42.9728 63.1431C42.0459 63.1431 41.2942 63.8946 41.2942 64.8217Z" fill="#47A209"/>
<path d="M34.5861 32.2122C33.9304 31.5569 32.8679 31.5569 32.2121 32.2122C31.5566 32.8677 31.5566 33.9305 32.2121 34.5862L37.901 40.2751C37.465 41.0875 37.2171 42.0153 37.2171 42.9999C37.2171 46.1886 39.8112 48.7827 42.9998 48.7827C46.1885 48.7827 48.7826 46.1886 48.7826 42.9999C48.7826 42.0153 48.5345 41.0875 48.0987 40.2751L59.5774 28.7964C60.2329 28.1409 60.2329 27.0781 59.5774 26.4224C58.9217 25.7671 57.8592 25.7671 57.2034 26.4224L45.7247 37.9011C44.9123 37.4651 43.9845 37.2172 42.9998 37.2172C42.0152 37.2172 41.0874 37.4653 40.275 37.9011L34.5861 32.2122ZM45.4254 42.9999C45.4254 44.3374 44.3373 45.4255 42.9998 45.4255C41.6623 45.4255 40.5743 44.3374 40.5743 42.9999C40.5743 41.6624 41.6623 40.5744 42.9998 40.5744C44.3373 40.5744 45.4254 41.6624 45.4254 42.9999Z" fill="#47A209"/>
<path d="M22.7025 22.7025C23.0164 22.3903 23.1958 21.9572 23.1958 21.5157C23.1958 21.0743 23.0164 20.6429 22.7025 20.329C22.3903 20.0169 21.9587 19.8372 21.5157 19.8372C21.0743 19.8372 20.6412 20.0168 20.329 20.329C20.0169 20.6412 19.8372 21.0743 19.8372 21.5157C19.8372 21.9589 20.0168 22.3903 20.329 22.7025C20.6412 23.0145 21.0743 23.1943 21.5157 23.1943C21.9587 23.1943 22.3903 23.0145 22.7025 22.7025Z" fill="#47A209"/>
<path d="M54.6276 5.01513C55.0709 5.01513 55.504 4.83703 55.816 4.52331C56.1282 4.21109 56.308 3.77952 56.308 3.33654C56.308 2.89508 56.1284 2.462 55.816 2.14978C55.504 1.83774 55.0709 1.65796 54.6276 1.65796C54.1861 1.65796 53.753 1.83757 53.441 2.14978C53.1288 2.462 52.949 2.89508 52.949 3.33654C52.949 3.77969 53.1286 4.21109 53.441 4.52331C53.753 4.83703 54.1861 5.01513 54.6276 5.01513Z" fill="#47A209"/>
<path d="M76.5667 16.3253H76.824H79.4812C80.3391 16.3253 81.0348 15.6296 81.0348 14.7717C81.0348 13.9138 80.3391 13.2181 79.4812 13.2181H73.1026C72.2447 13.2181 71.549 13.9138 71.549 14.7717V21.1504C71.549 22.0082 72.2447 22.7039 73.1026 22.7039C73.9605 22.7039 74.6562 22.0082 74.6562 21.1504V19.3034V18.9272L74.8813 19.2286C79.9906 26.0688 82.7678 34.3682 82.7678 43C82.7678 64.9283 64.9283 82.7678 43 82.7678C21.0717 82.7678 3.23217 64.9283 3.23217 43C3.23217 21.0717 21.0717 3.23217 43 3.23217C44.6217 3.23217 46.2537 3.33067 47.8514 3.52482M76.5667 16.3253L47.8363 3.64891M76.5667 16.3253L76.7257 16.5276M76.5667 16.3253L76.7257 16.5276M47.8514 3.52482L47.8363 3.64891M47.8514 3.52482C47.8514 3.52482 47.8514 3.52482 47.8513 3.52481L47.8363 3.64891M47.8514 3.52482C48.7021 3.62764 49.4777 3.02175 49.5812 2.17011L49.7047 2.18511L49.5812 2.17009C49.6848 1.31841 49.0783 0.5438 48.2265 0.440333C46.5049 0.231122 44.7466 0.125 43 0.125C31.5474 0.125 20.7809 4.58459 12.6828 12.6828L12.5944 12.5944M47.8363 3.64891C48.7554 3.76003 49.5935 3.10555 49.7053 2.18518C49.8172 1.26498 49.1619 0.428039 48.2416 0.316246C46.515 0.106422 44.7516 0 43 0C31.5143 0 20.7159 4.47276 12.5944 12.5944M12.5944 12.5944L12.6828 12.6828C4.58459 20.7809 0.125 31.5474 0.125 43C0.125 54.4526 4.58459 65.2191 12.6828 73.3172C20.7809 81.4154 31.5474 85.875 43 85.875C54.4526 85.875 65.2191 81.4154 73.3172 73.3172C81.4154 65.2191 85.875 54.4526 85.875 43C85.875 33.3357 82.6464 24.0582 76.7257 16.5276M12.5944 12.5944L76.7257 16.5276M76.824 16.4503L76.9223 16.3731C76.9425 16.3988 76.9627 16.4245 76.9829 16.4503H76.824ZM76.824 16.4503V16.5753H76.9219C76.8894 16.5336 76.8567 16.4919 76.824 16.4503Z" stroke="white" stroke-width="0.25"/>
<path d="M25.991 15.9628L25.991 15.9628C32.0169 12.1646 39.2596 10.4879 46.3829 11.2429L46.3935 11.1432L46.3829 11.2429C53.613 12.0087 60.4315 15.2672 65.5826 20.418C78.0343 32.8697 78.0343 53.1306 65.5826 65.5824C59.3566 71.8083 51.1789 74.9212 43.0003 74.9212C34.8217 74.9212 26.6438 71.8081 20.4181 65.5824C15.2592 60.4233 11.9995 53.5936 11.2395 46.3515C10.4906 39.2149 12.1805 31.9644 15.9974 25.936C16.4565 25.2114 17.4162 24.9955 18.1412 25.4544C18.8661 25.9135 19.0816 26.8733 18.6228 27.5984C11.48 38.8793 13.1592 53.929 22.6153 63.3851C33.8556 74.6258 52.145 74.6258 63.3853 63.3851C74.6258 52.1447 74.6258 33.8556 63.3853 22.6151C53.7973 13.0271 39.1013 11.3726 27.6478 18.5915C26.9219 19.0489 25.9626 18.8315 25.5051 18.1055C25.0477 17.3797 25.2651 16.4203 25.991 15.9628Z" stroke="white" stroke-width="0.25"/>
<path d="M66.8917 44.5808H64.8217C63.9636 44.5808 63.2681 43.8851 63.2681 43.0272C63.2681 42.1693 63.9638 41.4736 64.8217 41.4736H66.8917C67.7496 41.4736 68.4453 42.1693 68.4453 43.0272C68.4453 43.8851 67.7496 44.5808 66.8917 44.5808Z" stroke="white" stroke-width="0.25"/>
<path d="M19.1083 44.5264C18.2504 44.5264 17.5547 43.8307 17.5547 42.9728C17.5547 42.1147 18.2504 41.4192 19.1083 41.4192H21.1783C22.0362 41.4192 22.7319 42.1149 22.7319 42.9728C22.7319 43.8307 22.0362 44.5264 21.1783 44.5264H19.1083Z" stroke="white" stroke-width="0.25"/>
<path d="M44.5808 19.1083V21.1783C44.5808 22.0362 43.8851 22.7319 43.0272 22.7319C42.1693 22.7319 41.4736 22.0362 41.4736 21.1783V19.1083C41.4736 18.2504 42.1693 17.5547 43.0272 17.5547C43.8851 17.5547 44.5808 18.2504 44.5808 19.1083Z" stroke="white" stroke-width="0.25"/>
<path d="M41.4192 66.8917V64.8217C41.4192 63.9636 42.1149 63.2681 42.9728 63.2681C43.8307 63.2681 44.5264 63.9638 44.5264 64.8217V66.8917C44.5264 67.7496 43.8307 68.4453 42.9728 68.4453C42.1149 68.4453 41.4192 67.7496 41.4192 66.8917Z" stroke="white" stroke-width="0.25"/>
<path d="M38.0111 40.3342L38.055 40.2524L37.9894 40.1867L32.3005 34.4978C31.6938 33.891 31.6938 32.9073 32.3004 32.3006C32.9075 31.694 33.8909 31.6941 34.4977 32.3006L40.1866 37.9895L40.2523 38.0551L40.3341 38.0112C41.1289 37.5849 42.0364 37.3422 42.9998 37.3422C43.9633 37.3422 44.8708 37.5848 45.6656 38.0112L45.7474 38.0551L45.8131 37.9895L57.2917 26.5108C57.2917 26.5108 57.2917 26.5108 57.2918 26.5108C57.8988 25.9043 58.8822 25.9043 59.489 26.5108C60.0957 27.1176 60.0957 28.1014 59.489 28.708L48.0103 40.1867L47.9447 40.2524L47.9886 40.3342C48.4149 41.129 48.6576 42.0365 48.6576 42.9999C48.6576 46.1196 46.1194 48.6577 42.9998 48.6577C39.8802 48.6577 37.3421 46.1196 37.3421 42.9999C37.3421 42.0365 37.5847 41.129 38.0111 40.3342ZM42.9998 45.5505C44.4064 45.5505 45.5504 44.4065 45.5504 42.9999C45.5504 41.5934 44.4064 40.4494 42.9998 40.4494C41.5933 40.4494 40.4493 41.5934 40.4493 42.9999C40.4493 44.4065 41.5933 45.5505 42.9998 45.5505Z" stroke="white" stroke-width="0.25"/>
<path d="M22.6143 22.6139L22.6141 22.6141C22.3253 22.9028 21.9254 23.0693 21.5157 23.0693C21.1075 23.0693 20.7062 22.9028 20.4174 22.6141C20.1285 22.3253 19.9622 21.9256 19.9622 21.5157C19.9622 21.1075 20.1287 20.7062 20.4174 20.4174C20.7062 20.1286 21.1075 19.9622 21.5157 19.9622C21.9254 19.9622 22.3252 20.1287 22.6141 20.4174C22.9047 20.708 23.0708 21.1077 23.0708 21.5157C23.0708 21.924 22.9046 22.3252 22.6143 22.6139Z" stroke="white" stroke-width="0.25"/>
<path d="M55.7276 4.43492L55.7274 4.43515C55.4391 4.72501 55.038 4.89013 54.6276 4.89013C54.219 4.89013 53.8179 4.72506 53.5296 4.43515L53.5293 4.43489C53.2403 4.14605 53.074 3.74642 53.074 3.33654C53.074 2.92831 53.2405 2.527 53.5294 2.23817L53.5294 2.23815C53.818 1.94937 54.2193 1.78296 54.6276 1.78296C55.0377 1.78296 55.439 1.94957 55.7276 2.23817L55.7276 2.2382C56.0166 2.527 56.183 2.92828 56.183 3.33654C56.183 3.74624 56.0165 4.14605 55.7276 4.43492Z" stroke="white" stroke-width="0.25"/>
</svg>
