<svg width="24" height="24" viewBox="0 0 24 24" fill="none" xmlns="http://www.w3.org/2000/svg">
<path d="M12 24C18.6274 24 24 18.6274 24 12C24 5.37258 18.6274 0 12 0C5.37258 0 0 5.37258 0 12C0 18.6274 5.37258 24 12 24Z" fill="#6F3FAA"/>
<path d="M17.2059 6.58325C14.285 5.87778 11.359 5.05259 8.36356 6.101C6.42416 6.82826 6.42416 8.92929 6.50497 10.7071C6.50497 11.1919 5.93933 11.8384 6.18172 12.404C6.66655 14.0202 7.07061 15.6363 8.76758 16.4444C9.01002 16.6061 8.76758 16.9293 8.9292 17.1717C8.84839 17.1717 8.68677 17.2525 8.68677 17.3333C8.68677 17.7206 8.86058 18.3131 8.74513 18.695L13.9017 23.8494C19.2028 23.0052 23.3459 18.69 23.9289 13.3062L17.2059 6.58325Z" fill="#512D84"/>
<path d="M18.3482 8.43395L18.3442 8.4181C18.0236 7.12187 16.5781 5.731 15.2506 5.44164L15.2356 5.43854C13.0885 5.02895 10.9113 5.02895 8.76466 5.43854L8.74924 5.44164C7.42221 5.731 5.97663 7.12196 5.65558 8.4181L5.65202 8.43395C5.25564 10.2441 5.25564 12.0799 5.65202 13.8901L5.65558 13.9059C5.96299 15.1468 7.30085 16.4739 8.5788 16.8388V18.2857C8.5788 18.8094 9.217 19.0667 9.57991 18.6887L11.0459 17.1648C11.3639 17.1826 11.6821 17.1925 12.0001 17.1925C13.0809 17.1925 14.1622 17.0903 15.2356 16.8856L15.2505 16.8825C16.578 16.5931 18.0235 15.2021 18.3442 13.906L18.3481 13.8902C18.7445 12.0799 18.7445 10.2442 18.3482 8.43395ZM17.188 13.6277C16.9739 14.4733 15.8763 15.5246 15.0043 15.7189C13.8626 15.936 12.7119 16.0288 11.5623 15.9969C11.5395 15.9963 11.5175 16.0052 11.5016 16.0216C11.3384 16.189 10.4312 17.1204 10.4312 17.1204L9.29271 18.2889C9.20946 18.3758 9.06321 18.3167 9.06321 18.1969V15.7999C9.06321 15.7603 9.03494 15.7267 8.99603 15.719C8.9958 15.7189 8.99561 15.7189 8.99538 15.7188C8.12332 15.5246 7.02616 14.4733 6.81171 13.6276C6.45494 11.9914 6.45494 10.3327 6.81171 8.69645C7.02616 7.85078 8.12332 6.79946 8.99538 6.60521C10.9893 6.226 13.0109 6.226 15.0043 6.60521C15.8768 6.79946 16.9739 7.85078 17.188 8.69645C17.5451 10.3327 17.5451 11.9914 17.188 13.6277Z" fill="white"/>
<path d="M13.8972 14.7342C13.7631 14.6934 13.6354 14.6661 13.5166 14.6169C12.287 14.1068 11.1555 13.4487 10.2592 12.4399C9.74947 11.8662 9.35052 11.2186 9.0133 10.5331C8.85336 10.2081 8.71859 9.87038 8.5812 9.53476C8.45595 9.22876 8.64045 8.91263 8.8347 8.68201C9.017 8.46558 9.25161 8.30002 9.50567 8.17791C9.70395 8.08266 9.89952 8.1376 10.0444 8.30565C10.3574 8.66902 10.645 9.05096 10.8778 9.47218C11.021 9.73126 10.9817 10.0479 10.7222 10.2242C10.6591 10.2671 10.6016 10.3174 10.5429 10.3658C10.4913 10.4082 10.4428 10.4511 10.4075 10.5085C10.343 10.6135 10.3399 10.7375 10.3814 10.8518C10.7014 11.7312 11.2408 12.4151 12.126 12.7835C12.2677 12.8424 12.4099 12.911 12.5731 12.892C12.8464 12.8601 12.9349 12.5603 13.1264 12.4036C13.3136 12.2506 13.5529 12.2486 13.7545 12.3762C13.9562 12.5039 14.1516 12.6408 14.346 12.7793C14.5368 12.9153 14.7267 13.0482 14.9026 13.2032C15.0718 13.3522 15.1301 13.5477 15.0348 13.7498C14.8604 14.1202 14.6066 14.4282 14.2405 14.6249C14.1372 14.6803 14.0137 14.6983 13.8972 14.7342C14.0137 14.6983 13.7631 14.6934 13.8972 14.7342Z" fill="white"/>
<path d="M12.0032 7.7543C13.6115 7.79939 14.9324 8.86669 15.2155 10.4567C15.2638 10.7276 15.2809 11.0046 15.3024 11.2796C15.3114 11.3952 15.2459 11.5051 15.1211 11.5066C14.9922 11.5082 14.9342 11.4003 14.9258 11.2847C14.9092 11.0559 14.8977 10.826 14.8662 10.5991C14.6997 9.40102 13.7444 8.40984 12.5519 8.19717C12.3724 8.16516 12.1889 8.15677 12.0071 8.13769C11.8922 8.12564 11.7417 8.1187 11.7162 7.97583C11.6949 7.85606 11.796 7.76072 11.91 7.75458C11.9409 7.75275 11.9721 7.7542 12.0032 7.7543C11.9721 7.7542 13.6115 7.79939 12.0032 7.7543Z" fill="white"/>
<path d="M14.4474 10.9229C14.4447 10.943 14.4434 10.9902 14.4316 11.0346C14.3889 11.1961 14.144 11.2163 14.0877 11.0534C14.071 11.0051 14.0685 10.95 14.0684 10.898C14.0679 10.5574 13.9939 10.2171 13.8221 9.92069C13.6455 9.61605 13.3757 9.36007 13.0593 9.20505C12.868 9.1114 12.6611 9.05313 12.4514 9.01849C12.3597 9.0033 12.2671 8.99416 12.175 8.98132C12.0634 8.9658 12.0038 8.89469 12.0091 8.78472C12.014 8.68169 12.0894 8.60749 12.2017 8.61391C12.5707 8.63482 12.9273 8.71469 13.2554 8.88841C13.9227 9.2418 14.3038 9.79952 14.4151 10.5443C14.4201 10.5781 14.4282 10.6115 14.4308 10.6453C14.4371 10.7289 14.441 10.8125 14.4474 10.9229C14.441 10.8125 14.4447 10.9429 14.4474 10.9229Z" fill="white"/>
<path d="M13.4472 10.8838C13.3126 10.8862 13.2406 10.8117 13.2267 10.6884C13.2171 10.6025 13.2094 10.5153 13.1889 10.4316C13.1485 10.2667 13.0609 10.114 12.9222 10.013C12.8568 9.96529 12.7826 9.93055 12.7049 9.90805C12.6062 9.8795 12.5036 9.88738 12.4053 9.86329C12.2983 9.83708 12.2392 9.75046 12.256 9.65019C12.2713 9.55888 12.3601 9.48763 12.4599 9.49489C13.0834 9.53989 13.529 9.86225 13.5927 10.5963C13.5972 10.6481 13.6024 10.7028 13.591 10.7525C13.5712 10.8372 13.5084 10.8797 13.4472 10.8838C13.5084 10.8797 13.3126 10.8862 13.4472 10.8838Z" fill="white"/>
<path d="M18.3481 8.43404L18.3441 8.41819C18.1644 7.69158 17.6311 6.9353 16.9633 6.35986L16.0605 7.15993C16.5973 7.58766 17.0573 8.18021 17.188 8.69649C17.5452 10.3328 17.5452 11.9914 17.188 13.6277C16.9739 14.4734 15.8763 15.5247 15.0043 15.719C13.8627 15.9361 12.7119 16.0289 11.5624 15.997C11.5395 15.9964 11.5175 16.0053 11.5016 16.0217C11.3384 16.1891 10.4312 17.1205 10.4312 17.1205L9.29272 18.289C9.20947 18.3759 9.06322 18.3168 9.06322 18.197V15.8C9.06322 15.7604 9.03496 15.7268 8.99605 15.7191C8.99582 15.7191 8.99563 15.719 8.99539 15.719C8.49979 15.6086 7.93171 15.2213 7.49408 14.7524L6.60205 15.5428C7.15916 16.1489 7.87771 16.6388 8.57868 16.839V18.2859C8.57868 18.8096 9.21688 19.0668 9.57978 18.6889L11.0458 17.165C11.3638 17.1828 11.6818 17.1927 12 17.1927C13.0808 17.1927 14.1621 17.0905 15.2354 16.8857L15.2504 16.8827C16.5779 16.5933 18.0234 15.2025 18.3441 13.9062L18.348 13.8904C18.7444 12.08 18.7444 10.2443 18.3481 8.43404Z" fill="#D1D1D1"/>
<path d="M13.8971 14.7341C14.0136 14.6982 13.763 14.6934 13.8971 14.7341V14.7341Z" fill="white"/>
<path d="M14.9027 13.203C14.7267 13.0481 14.5368 12.9151 14.3461 12.7792C14.1517 12.6406 13.9563 12.5037 13.7546 12.376C13.5529 12.2484 13.3137 12.2504 13.1265 12.4035C12.935 12.5601 12.8465 12.8599 12.5732 12.8918C12.41 12.9108 12.2678 12.8422 12.1261 12.7833C11.5815 12.5567 11.1682 12.2102 10.8559 11.7727L10.1921 12.361C10.2147 12.3871 10.2362 12.4139 10.2591 12.4397C11.1555 13.4485 12.2871 14.1066 13.5166 14.6168C13.6352 14.666 13.763 14.6933 13.8971 14.734C13.763 14.6933 14.0137 14.6981 13.8971 14.734C14.0137 14.6981 14.1371 14.6801 14.2406 14.6247C14.6067 14.428 14.8604 14.1199 15.0348 13.7496C15.1301 13.5475 15.0719 13.352 14.9027 13.203Z" fill="#D1D1D1"/>
<path d="M12.0076 7.75457C12.0063 7.75457 12.005 7.75443 12.0036 7.75443C12.0023 7.75434 12.004 7.75443 12.0076 7.75457Z" fill="white"/>
<path d="M12.0037 7.75439C12.005 7.75439 12.0063 7.75454 12.0077 7.75454C12.0969 7.75772 13.5486 7.79771 12.0037 7.75439Z" fill="white"/>
<path d="M14.3101 8.71118L14.0271 8.96201C14.4718 9.39467 14.7785 9.96809 14.8661 10.5991C14.8976 10.8261 14.9092 11.0559 14.9257 11.2848C14.9341 11.4004 14.9921 11.5083 15.1211 11.5068C15.2459 11.5052 15.3114 11.3954 15.3023 11.2797C15.2808 11.0047 15.2637 10.7277 15.2155 10.4568C15.0916 9.76081 14.7688 9.16498 14.3101 8.71118Z" fill="#D1D1D1"/>
<path d="M14.415 10.5442C14.3339 10.0015 14.1088 9.5586 13.7348 9.22119L13.4526 9.47127C13.5986 9.60079 13.7248 9.75289 13.822 9.92066C13.9938 10.2171 14.0678 10.5574 14.0684 10.898C14.0685 10.95 14.071 11.005 14.0877 11.0534C14.1441 11.2164 14.3889 11.1962 14.4315 11.0347C14.4433 10.9902 14.4447 10.943 14.4474 10.9229C14.4447 10.9431 14.4409 10.8126 14.4474 10.9229C14.4409 10.8126 14.437 10.7289 14.4306 10.6453C14.4282 10.6113 14.42 10.5779 14.415 10.5442Z" fill="#D1D1D1"/>
<path d="M14.4471 10.9228C14.4408 10.8125 14.4445 10.9428 14.4471 10.9228V10.9228Z" fill="white"/>
<path d="M13.4469 10.8838C13.449 10.8836 13.451 10.8826 13.453 10.8823C13.4474 10.8823 13.4386 10.8825 13.4297 10.8828C13.4355 10.8829 13.4408 10.8838 13.4469 10.8838Z" fill="white"/>
<path d="M13.447 10.8838C13.4409 10.8839 13.4356 10.883 13.4298 10.8828C13.4007 10.8836 13.3706 10.8852 13.447 10.8838Z" fill="white"/>
<path d="M13.4532 10.8823C13.451 10.8826 13.449 10.8836 13.447 10.8838C13.4628 10.8827 13.4614 10.8823 13.4532 10.8823Z" fill="white"/>
<path d="M13.1632 9.72778L12.876 9.98241C12.8918 9.99202 12.9073 10.002 12.9224 10.013C13.061 10.114 13.1487 10.2667 13.1891 10.4316C13.2096 10.5153 13.2172 10.6024 13.2269 10.6884C13.2402 10.8062 13.307 10.8787 13.4301 10.8829C13.4391 10.8826 13.4479 10.8825 13.4535 10.8824C13.5127 10.8758 13.5721 10.8343 13.5911 10.7524C13.6026 10.7028 13.5973 10.648 13.5928 10.5962C13.5571 10.1858 13.4019 9.90427 13.1632 9.72778Z" fill="#D1D1D1"/>
</svg>
