<svg width="24" height="24" viewBox="0 0 24 24" fill="none" xmlns="http://www.w3.org/2000/svg">
<g clip-path="url(#clip0)">
<path d="M12.0009 23.9999C18.6283 23.9999 24.0009 18.6273 24.0009 12C24.0009 5.37256 18.6283 0 12.0009 0C5.37355 0 0.000976562 5.37256 0.000976562 12C0.000976562 18.6273 5.37355 23.9999 12.0009 23.9999Z" fill="#4E598F"/>
<path d="M23.9809 11.3297L18.3289 5.67587C18.2353 5.70423 18.0016 5.59552 17.8989 5.61615C15.4747 6.02021 13.1313 5.61615 10.7878 6.2626C9.65652 6.58585 9.5757 7.95956 9.17169 8.84845C8.60605 10.4646 8.68686 12.2424 7.95955 13.7777C7.47473 14.8282 6.3434 15.4747 5.93934 16.6868C5.80458 17.1924 5.81255 17.8296 5.66016 18.3129L11.3311 23.9811C11.5526 23.9933 11.7754 24 11.9999 24C18.6273 24 23.9999 18.6274 23.9999 12C23.9999 11.775 23.9932 11.5516 23.9809 11.3297Z" fill="#364270"/>
<path d="M17.0176 5.1311H6.98243C5.96014 5.1311 5.13135 5.95985 5.13135 6.98219V17.0174C5.13135 18.0398 5.96009 18.8685 6.98243 18.8685H11.9317L11.9402 13.9596H10.6648C10.499 13.9596 10.3645 13.8256 10.3639 13.6598L10.3577 12.0774C10.357 11.9108 10.4921 11.7753 10.6586 11.7753H11.9319V10.2464C11.9319 8.47206 13.0155 7.50592 14.5983 7.50592H15.8972C16.0633 7.50592 16.1981 7.64064 16.1981 7.80686V9.14106C16.1981 9.30727 16.0634 9.44199 15.8974 9.44199L15.1002 9.44246C14.2395 9.44246 14.0727 9.85144 14.0727 10.4518V11.7755H15.9641C16.1445 11.7755 16.2843 11.9329 16.2629 12.1117L16.0754 13.6942C16.0575 13.8457 15.9291 13.9597 15.7766 13.9597H14.0812L14.0726 18.8688H17.0176C18.0399 18.8688 18.8687 18.0399 18.8687 17.0176V6.98219C18.8687 5.9599 18.0399 5.1311 17.0176 5.1311Z" fill="white"/>
<path d="M11.9316 18.8683L11.9402 13.9595H11.9192V18.8683H11.9316Z" fill="white"/>
<path d="M17.0176 5.1311H11.9192V11.7752H11.9318V10.2463C11.9318 8.47196 13.0154 7.50583 14.5982 7.50583H15.8971C16.0632 7.50583 16.1981 7.64055 16.1981 7.80676V9.14096C16.1981 9.30718 16.0633 9.4419 15.8973 9.4419L15.1002 9.44237C14.2394 9.44237 14.0726 9.85135 14.0726 10.4517V11.7754H15.9641C16.1444 11.7754 16.2842 11.9328 16.2629 12.1116L16.0753 13.6941C16.0575 13.8456 15.929 13.9596 15.7765 13.9596H14.0811L14.0726 18.8686H17.0175C18.0398 18.8686 18.8686 18.0398 18.8686 17.0175V6.98219C18.8686 5.9599 18.0399 5.1311 17.0176 5.1311Z" fill="#D1D1D1"/>
</g>
<defs>
<clipPath id="clip0">
<rect width="24" height="24" fill="white"/>
</clipPath>
</defs>
</svg>
