<svg width="86" height="86" viewBox="0 0 86 86" fill="none" xmlns="http://www.w3.org/2000/svg">
<path d="M69.7811 60.2807C69.1912 59.6937 68.4341 59.3036 67.6137 59.1641C66.7932 59.0246 65.9497 59.1423 65.1989 59.5013L53.4814 47.7838C56.7077 43.4706 58.6321 38.3241 59.0274 32.9523C59.4227 27.5805 58.2722 22.2078 55.712 17.4688H60.4689C60.8253 17.4688 61.1671 17.3272 61.4191 17.0752C61.6711 16.8232 61.8127 16.4814 61.8127 16.125C61.8127 15.7687 61.6711 15.4269 61.4191 15.1749C61.1671 14.9229 60.8253 14.7813 60.4689 14.7813H54.0324C51.8261 11.5752 48.9769 8.86309 45.6659 6.81749C42.3549 4.77189 38.6545 3.4375 34.8 2.89913C30.9455 2.36076 27.0211 2.6302 23.2764 3.6903C19.5316 4.75041 16.0483 6.578 13.048 9.05692C12.7718 9.28678 12.5982 9.61696 12.5655 9.9748C12.5327 10.3326 12.6434 10.6888 12.8733 10.965C13.1032 11.2412 13.4333 11.4148 13.7912 11.4476C14.149 11.4803 14.5052 11.3696 14.7814 11.1397C19.6705 7.12026 25.8825 5.06786 32.2039 5.38343C38.5253 5.699 44.5019 8.35988 48.9664 12.8463C49.5845 13.4734 50.1624 14.1184 50.6999 14.7813H38.9689C38.6125 14.7813 38.2708 14.9229 38.0188 15.1749C37.7668 15.4269 37.6252 15.7687 37.6252 16.125V20.1563C37.6252 20.5127 37.7668 20.8545 38.0188 21.1065C38.2708 21.3585 38.6125 21.5 38.9689 21.5C39.3253 21.5 39.6671 21.3585 39.9191 21.1065C40.1711 20.8545 40.3127 20.5127 40.3127 20.1563V17.4688H52.5946C55.0701 21.4542 56.3997 26.0448 56.4372 30.7364C56.4747 35.428 55.2186 40.0392 52.8071 44.0637C50.3955 48.0882 46.9215 51.3703 42.7667 53.5498C38.6119 55.7292 33.9369 56.7217 29.255 56.4181C24.5731 56.1146 20.0654 54.5268 16.2267 51.8292C12.3881 49.1315 9.36707 45.4283 7.49529 41.1261C5.62352 36.8239 4.97341 32.0891 5.61634 27.4417C6.25928 22.7942 8.1704 18.4137 11.1399 14.7813C11.3697 14.5051 11.4805 14.1489 11.4477 13.791C11.4149 13.4332 11.2414 13.103 10.9652 12.8732C10.689 12.6433 10.3328 12.5326 9.97494 12.5653C9.61709 12.5981 9.28692 12.7717 9.05705 13.0479C5.7634 17.0951 3.65646 21.9763 2.97035 27.1491C2.28425 32.3219 3.04586 37.5836 5.17054 42.3496C7.29523 47.1155 10.6998 51.199 15.0058 54.1462C19.3119 57.0934 24.3509 58.789 29.5627 59.0444V67.6444C28.1954 67.0687 26.7323 66.7542 25.2492 66.7172L26.7274 63.761C26.8578 63.4478 26.8649 63.0968 26.7473 62.7785C26.6297 62.4603 26.396 62.1983 26.0932 62.0452C25.7904 61.8921 25.4409 61.8593 25.1149 61.9532C24.7889 62.0471 24.5104 62.2609 24.3355 62.5516L21.8092 67.6041L17.778 75.5322C17.3657 76.3561 17.172 77.2721 17.2156 78.1923C17.2593 79.1126 17.5387 80.0061 18.0271 80.7873C18.5155 81.5685 19.1964 82.211 20.0046 82.6532C20.8128 83.0954 21.7211 83.3224 22.6424 83.3125H39.1705C40.086 83.3109 40.986 83.0754 41.785 82.6285C42.584 82.1815 43.2556 81.5379 43.7361 80.7585C44.2166 79.9792 44.4901 79.0901 44.5306 78.1755C44.5712 77.2608 44.3774 76.351 43.9677 75.5322L41.5086 70.6141L37.6252 62.8338V58.2785C42.6349 57.0691 47.2145 54.5027 50.8611 50.861C51.1836 50.5385 51.4658 50.1891 51.7614 49.8666L63.1564 61.2213L61.2214 63.1563L52.6617 54.5966C52.5525 54.4322 52.4085 54.2938 52.2397 54.1914C52.071 54.089 51.8818 54.025 51.6856 54.0039C51.4893 53.9829 51.2908 54.0053 51.1042 54.0697C50.9176 54.1341 50.7475 54.2387 50.606 54.3763C50.4644 54.5138 50.3549 54.6809 50.2852 54.8655C50.2155 55.0502 50.1873 55.2479 50.2027 55.4447C50.2181 55.6415 50.2766 55.8325 50.3742 56.0041C50.4717 56.1757 50.6058 56.3237 50.767 56.4375L59.5014 65.1719C59.1425 65.9227 59.0247 66.7662 59.1642 67.5866C59.3038 68.4071 59.6938 69.1642 60.2808 69.7541L72.6299 82.1032C73.3857 82.8581 74.4103 83.2821 75.4786 83.2821C76.5469 83.2821 77.5715 82.8581 78.3274 82.1032L82.1302 78.3004C82.8851 77.5445 83.3091 76.5199 83.3091 75.4516C83.3091 74.3833 82.8851 73.3587 82.1302 72.6028L69.7811 60.2807ZM41.4549 79.3485C41.2227 79.7508 40.8902 80.086 40.4898 80.3215C40.0895 80.557 39.6349 80.6847 39.1705 80.6922H22.6424C22.1861 80.6897 21.738 80.5711 21.3402 80.3475C20.9425 80.1239 20.6082 79.8027 20.3689 79.4142C20.1296 79.0257 19.9932 78.5826 19.9725 78.1268C19.9518 77.671 20.0474 77.2174 20.2505 76.8088L23.8921 69.4988C26.1012 69.2766 28.319 69.8275 30.1674 71.0575C31.536 71.9694 33.0737 72.5974 34.6894 72.9043C36.3051 73.2113 37.9659 73.191 39.5736 72.8447L41.5489 76.876C41.7325 77.2655 41.8197 77.6934 41.8034 78.1237C41.787 78.554 41.6675 78.974 41.4549 79.3485V79.3485ZM35.0855 63.761L38.3374 70.2782C36.2349 70.5696 34.0951 70.1587 32.2502 69.1091V59.0444C33.1499 59.0066 34.047 58.9214 34.9377 58.7891V63.1563C34.9389 63.3666 34.9896 63.5738 35.0855 63.761V63.761ZM80.2355 76.4325L76.4327 80.2354C76.3078 80.3613 76.1591 80.4613 75.9954 80.5295C75.8316 80.5977 75.656 80.6328 75.4786 80.6328C75.3012 80.6328 75.1256 80.5977 74.9618 80.5295C74.7981 80.4613 74.6495 80.3613 74.5245 80.2354L62.1755 67.8728C61.9272 67.6226 61.7873 67.2847 61.7858 66.9322C61.7848 66.7554 61.8187 66.5801 61.8855 66.4164C61.9524 66.2526 62.0509 66.1037 62.1755 65.9782L65.9783 62.1754C66.2301 61.9251 66.5706 61.7846 66.9256 61.7846C67.2806 61.7846 67.6212 61.9251 67.873 62.1754L80.2355 74.5244C80.3614 74.6493 80.4614 74.798 80.5296 74.9617C80.5978 75.1254 80.633 75.3011 80.633 75.4785C80.633 75.6559 80.5978 75.8315 80.5296 75.9953C80.4614 76.159 80.3614 76.3076 80.2355 76.4325V76.4325Z" fill="#47A209"/>
<path d="M24.1876 41.6563V49.8935C21.5911 49.0813 19.186 47.7519 17.1171 45.9853C15.0481 44.2187 13.3582 42.0516 12.1491 39.6145C10.9401 37.1775 10.2368 34.5208 10.0819 31.8047C9.92691 29.0886 10.3234 26.3692 11.2474 23.8105C12.1715 21.2517 13.6039 18.9064 15.4585 16.916C17.3131 14.9256 19.5514 13.3312 22.0386 12.2289C24.5259 11.1266 27.2105 10.5393 29.9307 10.5022C32.651 10.4651 35.3506 10.9791 37.867 12.0132C38.0328 12.075 38.2093 12.1035 38.3861 12.097C38.563 12.0906 38.7369 12.0494 38.8979 11.9758C39.0588 11.9022 39.2037 11.7976 39.3243 11.668C39.4448 11.5384 39.5386 11.3863 39.6004 11.2204C39.6622 11.0545 39.6907 10.8781 39.6842 10.7012C39.6778 10.5243 39.6366 10.3505 39.563 10.1895C39.4894 10.0285 39.3848 9.88364 39.2552 9.7631C39.1256 9.64256 38.9735 9.54873 38.8076 9.48697C34.7135 7.99646 30.2795 7.70284 26.0246 8.64044C21.7697 9.57805 17.8698 11.7081 14.7813 14.7813C11.5978 17.9759 9.43114 22.0412 8.55431 26.4651C7.67749 30.889 8.12977 35.4735 9.85416 39.6408C11.5785 43.808 14.4979 47.3716 18.2443 49.8825C21.9906 52.3933 26.3964 53.7391 30.9063 53.7501V53.7501C34.7778 53.7466 38.5849 52.7592 41.97 50.8806C45.3552 49.002 48.2074 46.294 50.2588 43.0107C52.3102 39.7274 53.4934 35.9766 53.6975 32.1105C53.9016 28.2444 53.1197 24.3899 51.4254 20.9088C51.2686 20.5881 50.9908 20.3428 50.6531 20.2269C50.3154 20.1109 49.9455 20.1339 49.6248 20.2907C49.304 20.4475 49.0587 20.7253 48.9428 21.063C48.8269 21.4007 48.8498 21.7706 49.0067 22.0913C50.4603 25.0618 51.1608 28.3442 51.0463 31.6493C50.9318 34.9543 50.0059 38.1804 48.3502 41.0431C46.6944 43.9058 44.3597 46.3172 41.552 48.0645C38.7443 49.8118 35.5497 50.8414 32.2501 51.0626V43.0001H34.9376V46.3326C34.9376 46.689 35.0792 47.0308 35.3312 47.2828C35.5832 47.5348 35.925 47.6763 36.2813 47.6763C36.6377 47.6763 36.9795 47.5348 37.2315 47.2828C37.4835 47.0308 37.6251 46.689 37.6251 46.3326V41.6563C37.6251 41.3 37.4835 40.9582 37.2315 40.7062C36.9795 40.4542 36.6377 40.3126 36.2813 40.3126H32.3576C32.5042 39.3812 32.7848 38.476 33.1907 37.6251H34.9376C38.1451 37.6251 41.2211 36.3509 43.4892 34.0829C45.7572 31.8149 47.0313 28.7388 47.0313 25.5313C47.0313 25.175 46.8898 24.8332 46.6378 24.5812C46.3858 24.3292 46.044 24.1876 45.6876 24.1876C45.3312 24.1876 44.9894 24.3292 44.7374 24.5812C44.4854 24.8332 44.3438 25.175 44.3438 25.5313C44.3442 27.9983 43.3754 30.3667 41.6461 32.1262C39.9168 33.8856 37.5655 34.8953 35.0988 34.9376C36.2664 33.7875 37.7175 32.9669 39.3048 32.5592C39.476 32.515 39.6368 32.4376 39.778 32.3314C39.9193 32.2251 40.0382 32.0921 40.1281 31.9398C40.2179 31.7876 40.2769 31.6192 40.3016 31.4442C40.3264 31.2691 40.3164 31.0909 40.2723 30.9198C40.2282 30.7486 40.1508 30.5878 40.0445 30.4465C39.9382 30.3053 39.8052 30.1863 39.653 30.0965C39.5007 30.0067 39.3323 29.9477 39.1573 29.9229C38.9823 29.8982 38.8041 29.9082 38.6329 29.9523C36.7645 30.4373 35.0376 31.3583 33.5938 32.6398V32.2501C33.5938 30.8246 34.1601 29.4574 35.1681 28.4494C36.1762 27.4414 37.5433 26.8751 38.9688 26.8751H40.3126C40.669 26.8751 41.0108 26.7335 41.2628 26.4815C41.5148 26.2295 41.6563 25.8877 41.6563 25.5313C41.6563 25.175 41.5148 24.8332 41.2628 24.5812C41.0108 24.3292 40.669 24.1876 40.3126 24.1876H38.9688C36.8305 24.1876 34.7798 25.037 33.2678 26.549C31.7558 28.0611 30.9063 30.1118 30.9063 32.2501V33.4595C30.5333 32.7196 30.0829 32.0215 29.5626 31.3767V28.2188C29.5626 26.0805 28.7132 24.0298 27.2011 22.5178C25.6891 21.0058 23.6384 20.1563 21.5001 20.1563H14.7813C14.425 20.1563 14.0832 20.2979 13.8312 20.5499C13.5792 20.8019 13.4376 21.1437 13.4376 21.5001C13.4376 24.7076 14.7118 27.7836 16.9798 30.0517C19.2478 32.3197 22.3239 33.5938 25.5313 33.5938H27.8426C28.9526 35.1672 29.5529 37.0434 29.5626 38.9688V40.3126H25.5313C25.175 40.3126 24.8332 40.4542 24.5812 40.7062C24.3292 40.9582 24.1876 41.3 24.1876 41.6563ZM16.2192 22.8438H21.5001C22.9256 22.8438 24.2928 23.4101 25.3008 24.4181C26.3088 25.4262 26.8751 26.7933 26.8751 28.2188V28.8907C25.7593 28.1366 24.5233 27.5777 23.2201 27.2379C22.8846 27.1709 22.5361 27.2344 22.2458 27.4155C21.9555 27.5966 21.7452 27.8816 21.6578 28.2123C21.5704 28.5431 21.6125 28.8948 21.7754 29.1956C21.9384 29.4965 22.21 29.7238 22.5348 29.8313C23.3859 30.0665 24.2 30.4192 24.9535 30.8795C22.796 30.7476 20.7498 29.8766 19.159 28.4131C17.5683 26.9496 16.5301 24.9829 16.2192 22.8438V22.8438ZM29.5626 43.0001V51.0626C28.6601 51.0128 27.7621 50.9005 26.8751 50.7267V43.0001H29.5626Z" fill="#47A209"/>
<path d="M81.9688 16.125C81.6124 16.125 81.2706 16.2666 81.0186 16.5186C80.7666 16.7706 80.625 17.1124 80.625 17.4688V18.8125H67.1875V13.4375H81.9688C82.3251 13.4375 82.6669 13.2959 82.9189 13.0439C83.1709 12.7919 83.3125 12.4501 83.3125 12.0938C83.3125 11.7374 83.1709 11.3956 82.9189 11.1436C82.6669 10.8916 82.3251 10.75 81.9688 10.75H65.8438C65.4874 10.75 65.1456 10.8916 64.8936 11.1436C64.6416 11.3956 64.5 11.7374 64.5 12.0938V20.1562C64.5 20.5126 64.6416 20.8544 64.8936 21.1064C65.1456 21.3584 65.4874 21.5 65.8438 21.5H81.9688C82.3251 21.5 82.6669 21.3584 82.9189 21.1064C83.1709 20.8544 83.3125 20.5126 83.3125 20.1562V17.4688C83.3125 17.1124 83.1709 16.7706 82.9189 16.5186C82.6669 16.2666 82.3251 16.125 81.9688 16.125Z" fill="#47A209"/>
<path d="M65.8438 26.875H75.25C75.6064 26.875 75.9482 26.7334 76.2002 26.4814C76.4522 26.2294 76.5938 25.8876 76.5938 25.5312C76.5938 25.1749 76.4522 24.8331 76.2002 24.5811C75.9482 24.3291 75.6064 24.1875 75.25 24.1875H65.8438C65.4874 24.1875 65.1456 24.3291 64.8936 24.5811C64.6416 24.8331 64.5 25.1749 64.5 25.5312C64.5 25.8876 64.6416 26.2294 64.8936 26.4814C65.1456 26.7334 65.4874 26.875 65.8438 26.875Z" fill="#47A209"/>
<path d="M65.8438 33.5938H72.5625C72.9189 33.5938 73.2607 33.4522 73.5127 33.2002C73.7647 32.9482 73.9062 32.6064 73.9062 32.25C73.9062 31.8936 73.7647 31.5518 73.5127 31.2998C73.2607 31.0478 72.9189 30.9062 72.5625 30.9062H65.8438C65.4874 30.9062 65.1456 31.0478 64.8936 31.2998C64.6416 31.5518 64.5 31.8936 64.5 32.25C64.5 32.6064 64.6416 32.9482 64.8936 33.2002C65.1456 33.4522 65.4874 33.5938 65.8438 33.5938Z" fill="#47A209"/>
</svg>
