<svg width="86" height="86" viewBox="0 0 86 86" fill="none" xmlns="http://www.w3.org/2000/svg">
<g clip-path="url(#clip0)">
<path d="M76.7617 58.6428L81.7654 61.5462V75.9075L69.3993 83.0823L57.0339 75.9075V61.5462L69.3993 54.3708L74.5788 57.3765L75.8458 55.1936L69.3993 51.453L55.7722 59.3606L43.4061 52.1852V36.3706L37.539 32.9659L36.2727 35.1489L40.8827 37.8239V52.1852L28.5166 59.3606L16.1512 52.1852V37.8239L28.5166 30.6485L34.0898 33.8825L35.3561 31.6996L29.7784 28.4629V12.6489L14.8895 4.00903L0 12.6489V19.8867H2.52347V14.1016L14.8895 6.92683L27.2549 14.1016V28.4636L14.8895 35.6383L2.52347 28.4636V22.4101H0V29.9162L13.6278 37.8239V52.1852L0 60.0929V77.3609L5.67879 80.6553L6.94511 78.473L2.52347 75.9075V61.5462L14.8895 54.3708L27.2549 61.5462V75.9075L14.8895 83.0823L9.12805 79.7393L7.86172 81.9223L14.8895 86.0001L28.5166 78.0924L34.0386 81.297L35.3049 79.114L29.7784 75.9069V61.5462L42.1444 54.3708L54.5105 61.5462V75.9069L42.1444 83.0823L37.4879 80.3804L36.2215 82.5633L42.1444 86.0001L55.7722 78.0924L69.3993 86.0001L84.2888 77.3609V60.0929L78.0287 56.4599L76.7617 58.6428Z" fill="#47A209"/>
<path d="M41.1353 22.0393C44.0223 22.0393 46.5136 20.3183 47.6415 17.8486L53.4725 19.2429C53.382 19.798 53.3328 20.3662 53.3328 20.9462C53.3328 24.5818 55.1876 27.7916 58.0005 29.6813L55.9966 32.3858C55.2428 32.1148 54.4311 31.9659 53.5847 31.9659C49.642 31.9659 46.4349 35.1737 46.4349 39.1164C46.4349 43.0591 49.642 46.2662 53.5847 46.2662C57.5274 46.2662 60.7352 43.0591 60.7352 39.1164C60.7352 36.9295 59.7471 34.9697 58.196 33.6574L60.2838 30.838C61.3972 31.2409 62.5973 31.4613 63.8479 31.4613C69.6454 31.4613 74.363 26.7444 74.363 20.9462C74.363 18.9044 73.7757 16.9983 72.7646 15.3836L75.0985 13.2525C76.1837 13.9171 77.4586 14.3003 78.8214 14.3003C82.764 14.3003 85.9712 11.0932 85.9712 7.15048C85.9712 3.20781 82.764 0 78.8214 0C74.878 0 71.6709 3.20781 71.6709 7.15048C71.6709 8.81574 72.245 10.3491 73.2036 11.5656L71.1768 13.4158C69.2813 11.5708 66.6955 10.4311 63.8479 10.4311C59.5148 10.4311 55.786 13.0655 54.1785 16.8172L48.2648 15.4033C48.2773 15.2333 48.2852 15.0621 48.2852 14.8895C48.2852 10.9468 45.078 7.73903 41.1353 7.73903C37.1927 7.73903 33.9849 10.9468 33.9849 14.8895C33.9849 18.8322 37.1927 22.0393 41.1353 22.0393V22.0393ZM78.8214 2.52347C81.3724 2.52347 83.4477 4.59946 83.4477 7.15048C83.4477 9.70151 81.3724 11.7768 78.8214 11.7768C76.2697 11.7768 74.1944 9.70151 74.1944 7.15048C74.1944 4.59946 76.2697 2.52347 78.8214 2.52347V2.52347ZM58.2117 39.1164C58.2117 41.6674 56.1364 43.7427 53.5847 43.7427C51.0337 43.7427 48.9584 41.6674 48.9584 39.1164C48.9584 36.5654 51.0337 34.4894 53.5847 34.4894C56.1364 34.4894 58.2117 36.5654 58.2117 39.1164ZM63.8479 12.9546C68.2538 12.9546 71.8389 16.5397 71.8389 20.9462C71.8389 25.3521 68.2538 28.9372 63.8479 28.9372C59.4413 28.9372 55.8562 25.3521 55.8562 20.9462C55.8562 16.5397 59.4413 12.9546 63.8479 12.9546V12.9546ZM41.1353 10.2625C43.6864 10.2625 45.7617 12.3385 45.7617 14.8895C45.7617 17.4405 43.6864 19.5159 41.1353 19.5159C38.5837 19.5159 36.5083 17.4405 36.5083 14.8895C36.5083 12.3385 38.5837 10.2625 41.1353 10.2625V10.2625Z" fill="#47A209"/>
<path d="M51.3585 74.8182L50.0915 72.6353L42.1445 77.2472L38.5634 75.1686L37.2964 77.3515L42.1445 80.1643L51.3585 74.8182Z" fill="#47A209"/>
<path d="M32.9292 74.8209L34.1955 72.6379L36.3785 73.9049L35.1115 76.0872L32.9292 74.8209Z" fill="#47A209"/>
<path d="M79.2419 73.7271V62.9994L74.3984 60.1892L73.1321 62.3721L76.7178 64.4527V73.7271H79.2419Z" fill="#47A209"/>
<path d="M68.7661 59.8436L70.0324 57.6606L72.2154 58.9276L70.9484 61.1099L68.7661 59.8436Z" fill="#47A209"/>
<path d="M5.67285 74.8202L6.93983 72.6379L11.1541 75.0833L9.88782 77.2663L5.67285 74.8202Z" fill="#47A209"/>
<path d="M12.0701 78.5334L13.3371 76.3511L15.52 77.6174L14.253 79.8003L12.0701 78.5334Z" fill="#47A209"/>
<path d="M5.04688 23.7598H7.571V26.2832H5.04688V23.7598Z" fill="#47A209"/>
<path d="M5.04688 16.2817H7.571V21.2355H5.04688V16.2817Z" fill="#47A209"/>
<path d="M27.8828 36.1192L29.1498 33.9363L31.3327 35.2026L30.0658 37.3855L27.8828 36.1192Z" fill="#47A209"/>
<path d="M38.3591 50.0049V39.2772L33.5156 36.467L32.2493 38.65L35.835 40.7306V50.0049H38.3591Z" fill="#47A209"/>
<path d="M66.7919 20.9462H69.3154C69.3154 17.9306 66.8628 15.478 63.8479 15.478V18.0015C65.4712 18.0015 66.7919 19.3229 66.7919 20.9462V20.9462Z" fill="#47A209"/>
</g>
<defs>
<clipPath id="clip0">
<rect width="86" height="86" fill="white"/>
</clipPath>
</defs>
</svg>
