<svg width="86" height="86" viewBox="0 0 86 86" fill="none" xmlns="http://www.w3.org/2000/svg">
<path d="M33.2518 33.4033C32.5273 32.6103 31.4958 32.1459 30.422 32.1292C28.2621 32.1015 26.4753 33.8235 26.4387 35.9818C26.4269 36.6775 26.9814 37.2509 27.6769 37.2627C27.6843 37.2628 27.6914 37.2628 27.6988 37.2628C28.3846 37.2628 28.9463 36.7128 28.9578 36.0242C28.9708 35.2534 29.6044 34.635 30.3825 34.6484C30.7711 34.6545 31.1293 34.8157 31.3915 35.1026C31.8608 35.6164 32.6578 35.6524 33.1713 35.1831C33.685 34.7139 33.7211 33.9169 33.2518 33.4033Z" fill="#47A209"/>
<path d="M39.9541 37.509C39.5679 36.6013 38.8163 35.8849 37.8913 35.5434C36.0312 34.8573 33.9576 35.8108 33.2685 37.6687C33.0264 38.3211 33.3592 39.046 34.0114 39.2881C34.1558 39.3417 34.3038 39.367 34.4493 39.367C34.9611 39.367 35.4421 39.0529 35.6306 38.545C35.8375 37.987 36.4612 37.7015 37.0189 37.9072C37.2992 38.0107 37.5182 38.2195 37.6353 38.4949C37.9076 39.1351 38.6476 39.4337 39.2876 39.1613C39.9281 38.889 40.2262 38.1493 39.9541 37.509Z" fill="#47A209"/>
<path d="M48.0734 26.3518C47.5809 25.8601 46.7832 25.8611 46.2919 26.3536L45.1044 27.5435C44.6129 28.036 44.6138 28.8337 45.1062 29.325C45.352 29.5704 45.674 29.693 45.996 29.693C46.3188 29.693 46.6416 29.5697 46.8877 29.3231L48.0752 28.1332C48.5667 27.6408 48.5659 26.8431 48.0734 26.3518Z" fill="#47A209"/>
<path d="M40.2359 42.615H38.5569C37.861 42.615 37.2971 43.179 37.2971 43.8747C37.2971 44.5705 37.861 45.1345 38.5569 45.1345H40.2359C40.9318 45.1345 41.4956 44.5705 41.4956 43.8747C41.4956 43.179 40.9318 42.615 40.2359 42.615Z" fill="#47A209"/>
<path d="M53.1096 42.615H51.4304C50.7345 42.615 50.1707 43.179 50.1707 43.8747C50.1707 44.5705 50.7347 45.1345 51.4304 45.1345H53.1096C53.8053 45.1345 54.3694 44.5705 54.3694 43.8747C54.3694 43.179 53.8053 42.615 53.1096 42.615Z" fill="#47A209"/>
<path d="M85.9595 65.3298L85.6315 63.5591C85.4224 62.4277 84.4344 61.6065 83.2823 61.6065C83.1377 61.6065 82.9919 61.6197 82.8484 61.6461L76.17 62.8729L79.1944 60.8511C79.9871 60.3213 80.3877 59.3737 80.2148 58.4335C80.1668 58.176 80.0768 57.929 79.9464 57.6977L79.0312 56.077C78.7176 55.5201 78.1828 55.1064 77.5655 54.9425C77.2631 54.8619 76.947 54.8439 76.6386 54.884C76.9754 53.0253 77.1491 51.1269 77.1491 49.1945C77.1491 48.337 76.6334 47.5991 75.8969 47.2714C76.8594 44.9823 76.925 42.3617 75.9737 39.9618C75.8966 39.7666 75.782 39.5924 75.6337 39.4439C75.4865 39.2968 75.3144 39.1831 75.119 39.1046C73.979 38.6506 72.7809 38.4205 71.5579 38.4205C71.4016 38.4205 71.2459 38.4245 71.0907 38.4319C70.9161 34.9158 68.0061 32.1089 64.4536 32.1089C63.9858 32.1089 63.5296 32.1586 63.089 32.2513C63.395 30.4205 63.2148 28.5052 62.5018 26.7069C62.4252 26.5092 62.3101 26.3318 62.1537 26.1729C62.0032 26.0224 61.8267 25.9063 61.6309 25.8286C60.4028 25.3395 59.1122 25.0915 57.7946 25.0915C55.8099 25.0915 53.9114 25.6495 52.2723 26.6869C51.6735 24.9523 50.6861 23.3238 49.3064 21.941C48.9022 21.5362 48.3647 21.3131 47.7928 21.3131C47.2209 21.3131 46.6834 21.5362 46.2787 21.9413L40.1793 28.0547C39.0506 27.0479 37.5652 26.446 35.9531 26.446C35.5872 26.446 35.2179 26.4781 34.8552 26.5413C33.5412 26.77 32.332 27.4132 31.405 28.3552C30.2163 27.7815 28.8546 27.5859 27.5459 27.8136C27.258 27.8637 26.9787 27.9342 26.7076 28.0202V23.3094C26.7076 20.0653 24.1002 17.4213 20.8749 17.3655V14.6938C21.8622 14.523 22.6161 13.6625 22.6161 12.6271V6.57372C22.6161 5.41609 21.6743 4.47412 20.5165 4.47412H10.2719C9.11412 4.47412 8.17232 5.41609 8.17232 6.57372V12.6271C8.17232 13.6625 8.92616 14.523 9.91348 14.6938V17.3652C6.68815 17.4208 4.08095 20.0648 4.08095 23.3091V60.0766C1.5658 62.348 0 65.5174 0 69.0222C0 75.9167 6.05105 81.5258 13.489 81.5258L63.9109 81.511C65.6319 81.5103 67.2504 80.754 68.3513 79.4361C69.4236 78.1532 69.8793 76.4868 69.6167 74.8434L79.6876 76.6532C79.827 76.6782 79.9698 76.691 80.1114 76.691C80.6136 76.691 81.0948 76.5368 81.5023 76.2455C82.0262 75.8713 82.3808 75.292 82.4754 74.6566L82.7481 72.8262C82.7874 72.564 82.7831 72.3 82.7352 72.0411C82.5619 71.1052 81.8492 70.3626 80.9195 70.1497L77.3698 69.3353L84.0417 68.1097C84.6709 67.9941 85.2168 67.6409 85.5789 67.115C85.9404 66.5904 86.0754 65.9565 85.9595 65.3298ZM71.5579 40.9397C72.3163 40.9397 73.0619 41.0598 73.7788 41.2964C74.4194 43.2472 74.1796 45.3513 73.1765 47.0895H69.7829L70.8657 46.0041C71.3572 45.5116 71.3562 44.7139 70.8636 44.2224C70.3709 43.731 69.5732 43.7318 69.0821 44.2244L68.5092 44.7987C68.2406 43.9144 67.7716 43.1226 67.1552 42.473C68.4055 41.4802 69.9404 40.9397 71.5579 40.9397ZM64.4536 34.6281C66.7287 34.6281 68.5795 36.4845 68.5795 38.7663C68.5795 38.8087 68.5775 38.8505 68.5763 38.8925C67.2484 39.3243 66.0244 40.0457 64.9805 41.0255C64.8144 40.9625 64.6459 40.9041 64.4729 40.8562C64.1044 38.8654 62.7628 37.2697 60.9906 36.5245C61.7261 35.385 63.0023 34.6281 64.4536 34.6281ZM57.7945 27.6107C58.6501 27.6107 59.4909 27.7491 60.3012 28.0229C60.9524 29.9593 60.8194 32.0392 59.9896 33.8408C59.3075 34.4621 58.7541 35.223 58.3758 36.0783C58.1509 36.0914 57.926 36.1163 57.7038 36.1549C56.7166 36.3268 55.7961 36.7551 55.0258 37.3762C54.7631 36.8958 54.4415 36.4526 54.073 36.0535L56.9618 33.158C57.4533 32.6656 57.4523 31.8679 56.9597 31.3766C56.4672 30.8851 55.6695 30.8859 55.178 31.3786L52.0206 34.5433C51.4197 34.2592 50.7704 34.0617 50.0879 33.9693C50.3827 32.466 51.1122 31.0495 52.2406 29.9184C53.7253 28.4302 55.6977 27.6107 57.7945 27.6107ZM48.1413 47.0895H47.0494C46.8655 46.6215 46.4108 46.2898 45.8775 46.2898C45.3442 46.2898 44.8895 46.6217 44.7056 47.0895H43.4209C43.7192 46.6037 43.6589 45.9601 43.2378 45.5398C42.7454 45.0483 41.9477 45.0492 41.4562 45.5417L40.2688 46.7315C40.1622 46.8384 40.0802 46.9601 40.0199 47.0895H37.4559C36.4956 45.6159 35.9096 43.8766 35.8402 42.0054H55.826C55.7567 43.8766 55.1706 45.6159 54.2104 47.0895H51.5422C51.4821 46.9601 51.3998 46.8382 51.2933 46.7314L50.1061 45.5415C49.6144 45.0492 48.8171 45.0478 48.3246 45.5395C47.9032 45.9597 47.8429 46.6035 48.1413 47.0895ZM45.2115 39.4859C45.6863 37.7261 47.2916 36.4275 49.194 36.4275C51.0966 36.4275 52.7018 37.7263 53.1767 39.4859H45.2115ZM47.7876 23.9957C48.9859 25.2907 49.7782 26.8283 50.1667 28.4445C49.5235 29.1434 48.9892 29.9157 48.5678 30.7376C48.3765 30.6204 48.1523 30.5517 47.9116 30.5517H46.2329C45.5372 30.5517 44.9731 31.1157 44.9731 31.8114C44.9731 32.5072 45.5372 33.0712 46.2329 33.0712H47.7055C47.6227 33.4191 47.5583 33.7711 47.5116 34.1259C47.0114 34.2572 46.5337 34.4443 46.0866 34.6825C45.2469 33.2335 43.8565 32.1536 42.209 31.7204C42.2085 31.7169 42.2079 31.7133 42.2072 31.7098C42.1084 31.1397 41.9361 30.5989 41.7011 30.0961L47.7876 23.9957ZM25.0148 35.3631C24.9409 35.1565 24.885 34.9445 24.8482 34.7319C24.4869 32.6489 25.8911 30.6588 27.9778 30.2955C28.1978 30.2572 28.4214 30.2377 28.6421 30.2377C29.472 30.2377 30.2652 30.5025 30.9355 31.0032C31.2128 31.2104 31.5636 31.2943 31.9049 31.2351C32.2462 31.1758 32.548 30.9788 32.7395 30.6901C33.3309 29.798 34.2358 29.2061 35.2872 29.023C35.5078 28.9845 35.7319 28.9652 35.9531 28.9652C37.8195 28.9652 39.4058 30.3006 39.7246 32.1407C39.7612 32.3515 39.7801 32.5712 39.7804 32.7937C39.7816 33.4458 40.2803 33.9893 40.93 34.0464C42.3384 34.1702 43.5373 35.0566 44.0931 36.3053C43.349 37.1983 42.8332 38.2888 42.6374 39.4859H35.453C34.5598 39.4859 33.7933 40.0373 33.4737 40.8177C31.8931 39.7412 30.0303 39.1612 28.0782 39.1612C26.8552 39.1612 25.6571 39.3915 24.5163 39.8457C24.3228 39.923 24.1498 40.037 24.0023 40.1845C23.8528 40.334 23.7381 40.5092 23.6628 40.7013C23.3729 41.4325 23.1796 42.1841 23.0751 42.9405C22.6236 42.4265 22.3055 41.7874 22.1812 41.0702C21.8849 39.3609 22.7797 37.6591 24.3564 36.9314C24.949 36.658 25.2347 35.9774 25.0148 35.3631ZM28.7702 46.745L29.1139 47.0895H26.0883C25.409 45.5136 25.3059 43.7199 25.8573 42.0375C26.5752 41.8005 27.3205 41.6806 28.0782 41.6806C29.9764 41.6806 31.7621 42.4225 33.106 43.7694C33.2847 43.9486 33.4512 44.1364 33.6076 44.3304C33.821 45.2969 34.1491 46.2202 34.5717 47.0893H32.6732L30.5539 44.9652C30.0623 44.4729 29.2646 44.4715 28.7724 44.9632C28.2798 45.4548 28.2788 46.2525 28.7702 46.745ZM23.4053 47.0895H18.9144C19.1146 45.8692 19.8486 44.829 20.8675 44.2155C21.4707 45.0236 22.258 45.677 23.165 46.1196C23.2291 46.4465 23.3079 46.7705 23.4053 47.0895ZM10.6918 6.99364H20.0965V12.2072H10.6918V6.99364ZM18.3554 14.7267V17.3627H12.4332V14.7267H18.3554ZM6.60064 28.418H14.7812C15.4771 28.418 16.041 27.8539 16.041 27.1582C16.041 26.4625 15.4771 25.8985 14.7812 25.8985H6.60064V23.3091C6.60064 21.4194 8.13318 19.8822 10.0169 19.8822H20.7716C22.6555 19.8822 24.1881 21.4194 24.1881 23.3091V25.8985H21.8359C21.14 25.8985 20.5761 26.4625 20.5761 27.1582C20.5761 27.8539 21.14 28.418 21.8359 28.418H24.1881V29.5361C22.7447 30.9513 21.9951 33.0265 22.3653 35.1612C22.366 35.1654 22.3668 35.1698 22.3675 35.1742C20.3465 36.5607 19.2696 39.0258 19.6985 41.5005C19.7235 41.645 19.7549 41.7871 19.7892 41.9277C19.1598 42.2747 18.5946 42.7228 18.1102 43.2472H6.60064V28.418ZM6.60048 45.7666H16.6473C16.5136 46.1912 16.4192 46.6331 16.3732 47.0895H16.1609C15.0014 47.0895 14.0579 48.0336 14.0579 49.1941C14.0579 51.1945 14.2439 53.1582 14.6042 55.0794C14.2422 55.0503 13.871 55.0347 13.4934 55.0347C11.9699 55.0347 10.5183 55.2764 9.40655 55.7155C7.70587 56.387 7.23573 57.3406 7.1331 58.0004C6.95287 58.09 6.77583 58.1848 6.60048 58.2817V45.7666ZM22.5526 61.2423C23.0063 61.6053 23.2836 61.9138 23.4443 62.1364C23.4292 62.1366 23.4134 62.1367 23.3975 62.1367C22.6844 62.1367 21.4033 61.8493 19.9465 61.0429C19.4042 60.7424 18.9045 60.403 18.5014 60.0615C18.0314 59.6632 17.3422 59.6636 16.8726 60.0617C16.4694 60.4035 15.9699 60.7428 15.428 61.0426C13.9709 61.8493 12.6898 62.1367 11.977 62.1367C11.9607 62.1367 11.9451 62.1366 11.9298 62.1364C12.0903 61.9138 12.3677 61.6051 12.8215 61.242C13.2181 60.9245 13.3852 60.3998 13.2453 59.9115C13.1052 59.423 12.6856 59.0664 12.1809 59.0073C10.9515 58.8632 10.1742 58.5503 9.81018 58.3225C10.2662 58.0385 11.4191 57.5542 13.4939 57.5542C15.2122 57.5542 16.4681 57.9155 17.0704 58.2538C17.4536 58.4688 17.9207 58.4688 18.3038 58.254C18.9065 57.9157 20.1626 57.5544 21.8809 57.5544C23.9558 57.5544 25.1085 58.0388 25.5644 58.3227C25.2006 58.5506 24.4231 58.8634 23.1934 59.0075C22.6886 59.0668 22.2689 59.4232 22.129 59.9118C21.9885 60.4003 22.1557 60.925 22.5526 61.2423ZM20.0325 76.5754L20.0759 76.8089C20.2257 77.618 20.5417 78.3606 20.9831 79.0063H13.489C7.44048 79.0063 2.51952 74.5276 2.51952 69.0222C2.51952 65.2599 4.81867 61.9785 8.20423 60.277C8.59308 60.5672 9.07784 60.8175 9.65296 61.0194C9.42486 61.4089 9.26596 61.8278 9.2285 62.2647C9.17879 62.8456 9.3565 63.3972 9.72938 63.8181C10.222 64.3744 10.9782 64.6564 11.977 64.6564C13.3079 64.6564 15.0543 64.1295 16.6483 63.247C17.0153 63.0439 17.3624 62.8294 17.6872 62.6054C18.0119 62.8293 18.3589 63.0438 18.7261 63.2472C20.3201 64.1295 22.0665 64.6563 23.3975 64.6564H23.3976C24.396 64.6564 25.1522 64.3744 25.6447 63.8183C26.0178 63.3973 26.1956 62.8457 26.1457 62.2647C26.1083 61.8278 25.9494 61.4089 25.7213 61.0194C26.2964 60.8173 26.7813 60.5671 27.1702 60.277C29.8552 61.6264 31.8558 63.9698 32.5692 66.7585L23.6593 70.1433C21.0513 71.1343 19.526 73.8392 20.0325 76.5754ZM66.4176 77.8208C65.7965 78.5645 64.8822 78.9912 63.9097 78.9915L62.5874 78.992L61.7614 74.5316C61.6346 73.8475 60.9776 73.3951 60.2932 73.5223C59.6092 73.6489 59.1572 74.3062 59.2838 74.9903L60.0253 78.9928L55.6907 78.9945L55.1322 75.9783C55.0054 75.2942 54.3483 74.8423 53.664 74.969C52.98 75.0956 52.528 75.7529 52.6546 76.437L53.1283 78.9955L43.046 78.9994L42.2871 74.903C42.1602 74.2188 41.5034 73.767 40.8189 73.8938C40.1348 74.0205 39.683 74.6779 39.8096 75.362L40.4837 79.0004L25.7623 79.0061C25.7619 79.0061 25.7616 79.0061 25.7613 79.0061C24.1871 79.0061 22.838 77.8891 22.5527 76.3495L22.5094 76.116C22.2247 74.5781 23.0844 73.0568 24.5536 72.4985L29.5048 70.6176L29.8736 72.6084C29.986 73.2149 30.5154 73.6389 31.1107 73.6389C31.187 73.6389 31.2642 73.6318 31.3418 73.6175C32.0258 73.4907 32.4776 72.8334 32.3508 72.1493L31.8985 69.7082L39.2479 66.9163C39.8983 66.6692 40.2253 65.9415 39.9783 65.2912C39.7312 64.6406 39.0027 64.3138 38.3533 64.5609L34.9333 65.8601C33.9739 62.4633 31.5091 59.6258 28.2406 58.0002C28.138 57.3404 27.6679 56.3868 25.9674 55.7153C24.8556 55.2762 23.404 55.0345 21.8805 55.0345C20.8321 55.0345 19.8308 55.1503 18.947 55.3611V54.6002C18.947 53.9044 18.3831 53.3404 17.6872 53.3404C17.3931 53.3404 17.1233 53.4419 16.9088 53.6108C16.7101 52.2968 16.5989 50.9622 16.5805 49.6087H57.6131C58.309 49.6087 58.8728 49.0446 58.8728 48.3489C58.8728 47.6532 58.309 47.0891 57.6131 47.0891H57.0976C57.8998 45.437 58.353 43.5847 58.353 41.627C58.353 40.5155 57.5025 39.5999 56.4188 39.496C56.8906 39.051 57.4795 38.751 58.1359 38.6367C58.3283 38.6032 58.5234 38.5863 58.7163 38.5863C60.3427 38.5863 61.7248 39.7498 62.0024 41.3525C62.0345 41.5381 62.0509 41.7296 62.0511 41.9219C62.052 42.5743 62.5508 43.1182 63.2007 43.1753C64.7062 43.3075 65.9379 44.4398 66.1961 45.9287C66.2646 46.3246 66.256 46.7152 66.1873 47.0891H64.8357C64.1398 47.0891 63.5759 47.6532 63.5759 48.3489C63.5759 49.0446 64.1398 49.6087 64.8357 49.6087H74.6269C74.5956 51.9196 74.298 54.1769 73.7429 56.367L66.9156 60.3973C66.4981 58.944 65.5275 57.7113 64.1904 56.9628C62.6906 56.1235 60.9083 55.9923 59.3008 56.6029L45.24 61.9446C44.5895 62.1917 44.2626 62.9193 44.5097 63.5697C44.7568 64.2202 45.4851 64.5467 46.1346 64.3L47.987 63.5964L48.5621 66.7016C48.6745 67.3081 49.2039 67.7323 49.7994 67.7323C49.8754 67.7323 49.9527 67.7252 50.0303 67.7109C50.7143 67.5843 51.1663 66.927 51.0396 66.2429L50.381 62.687L60.1952 58.9586C61.1046 58.6133 62.1121 58.6873 62.9598 59.1619C63.806 59.6354 64.3923 60.4517 64.5683 61.401L67.1169 75.1601C67.2926 76.109 67.0378 77.0787 66.4176 77.8208ZM70.9124 67.96C70.3247 68.068 69.8939 68.5739 69.8806 69.1714C69.8675 69.7689 70.276 70.2933 70.8584 70.4268L80.2377 72.5781L80.0034 74.1502L69.1301 72.1962L67.4305 63.0194L76.9012 57.4288L77.6901 58.8257L69.7019 64.1656C69.2052 64.4977 69.01 65.133 69.2348 65.6866C69.4593 66.2402 70.0422 66.56 70.6297 66.452L83.178 64.147L83.4575 65.6553L70.9124 67.96Z" fill="#47A209"/>
</svg>
