<svg width="86" height="86" viewBox="0 0 86 86" fill="none" xmlns="http://www.w3.org/2000/svg">
<g clip-path="url(#clip0)">
<path d="M53.9779 10.7164C44.5183 5.93633 33.1231 7.764 25.6231 15.2642C16.9064 23.9808 16.0339 37.8795 23.5939 47.5939C23.8611 47.9372 24.2606 48.1169 24.6644 48.1169C24.9553 48.1169 25.2484 48.0237 25.4958 47.831C26.0865 47.3713 26.1927 46.5199 25.7331 45.9291C19.0112 37.2918 19.788 24.9326 27.54 17.1807C34.21 10.5103 44.3433 8.88469 52.7558 13.1355C53.4237 13.4734 54.239 13.205 54.5766 12.537C54.914 11.869 54.6463 11.0538 53.9779 10.7164Z" fill="#47A209"/>
<path d="M64.8003 21.5399C64.4627 20.8719 63.6478 20.6039 62.9793 20.9411C62.3113 21.2786 62.0431 22.0936 62.3805 22.7619C66.6283 31.1731 65.0018 41.305 58.3333 47.9734C50.5812 55.7252 38.2222 56.5019 29.5849 49.7803C28.994 49.3207 28.1427 49.4268 27.683 50.0174C27.2232 50.6082 27.3296 51.4596 27.9203 51.9193C32.3453 55.363 37.6382 57.0568 42.9142 57.0568C49.221 57.0568 55.5039 54.6362 60.2502 49.8899C67.7485 42.3918 69.577 30.9988 64.8003 21.5399Z" fill="#47A209"/>
<path d="M61.2987 16.3778C60.9629 15.9978 60.6102 15.6226 60.2502 15.2628C59.8903 14.9028 59.5152 14.5501 59.1353 14.2143C58.5744 13.7185 57.7178 13.7716 57.2224 14.3324C56.7264 14.8931 56.7792 15.7496 57.34 16.2452C57.6785 16.5442 58.0127 16.8587 58.3335 17.1793C58.654 17.5001 58.9685 17.8342 59.2676 18.1727C59.5354 18.4757 59.9086 18.6304 60.2837 18.6304C60.6026 18.6304 60.9228 18.5184 61.1806 18.2906C61.7416 17.7951 61.7944 16.9386 61.2987 16.3778Z" fill="#47A209"/>
<path d="M74.9253 35.0065C75.829 33.5238 75.829 31.6822 74.925 30.1999L73.142 27.276C72.9071 26.8907 72.8163 26.4331 72.8865 25.9877L73.4179 22.611C73.6889 20.8902 72.9819 19.1848 71.5733 18.16L68.81 16.1501C68.4447 15.8842 68.185 15.4963 68.0787 15.0573L67.274 11.7317C66.8655 10.0424 65.5622 8.73928 63.8731 8.33045L60.5473 7.52554C60.1082 7.41922 59.7201 7.15954 59.4545 6.7942L57.4443 4.03027C56.4196 2.62168 54.7141 1.91436 52.9937 2.18547L49.6159 2.71692C49.1704 2.78696 48.7127 2.69626 48.3277 2.46144L45.4034 0.677944C43.9209 -0.226065 42.0793 -0.225897 40.5968 0.677944L37.6728 2.46094C37.2878 2.69592 36.8304 2.78629 36.3845 2.71642L33.0076 2.18496C31.2873 1.9142 29.5815 2.62118 28.5569 4.02977L26.547 6.79303C26.2811 7.15836 25.8931 7.41804 25.4539 7.52436L22.1282 8.3291C20.4393 8.7376 19.1359 10.0409 18.727 11.73L17.9221 15.0558C17.8158 15.4948 17.5563 15.883 17.1908 16.1486L14.4269 18.1588C13.0183 19.1833 12.3115 20.8885 12.5821 22.6093L13.1135 25.9874C13.1836 26.433 13.0929 26.8905 12.858 27.2755L11.0747 30.2C10.171 31.6825 10.171 33.5241 11.0749 35.0065L12.8579 37.9305C13.0927 38.3158 13.1836 38.7733 13.1133 39.2188L12.5819 42.5956C12.311 44.3163 13.0179 46.0219 14.4265 47.0465L17.1898 49.0564C17.5551 49.322 17.8148 49.7101 17.9211 50.1492L18.7259 53.4748C19.1344 55.1641 20.4376 56.4672 22.1267 56.876L23.5155 57.2121L14.117 78.177C13.9172 78.6226 13.9725 79.141 14.2619 79.5344C14.5512 79.9278 15.0294 80.1352 15.5145 80.0771L23.0768 79.1729L27.4332 85.4199C27.6882 85.7852 28.1043 85.9999 28.5445 85.9999C28.5867 85.9999 28.6293 85.9978 28.6717 85.994C29.1578 85.9483 29.5819 85.6444 29.7816 85.1991L39.3802 63.7866L40.5964 64.5282C41.3377 64.9802 42.1686 65.2061 42.9998 65.2061C43.8309 65.2061 44.6618 64.98 45.4031 64.5282L46.6632 63.7599L56.2738 85.1991C56.4736 85.6448 56.8975 85.9483 57.3838 85.994C57.4263 85.998 57.4688 86 57.5109 86C57.9512 86 58.3674 85.7854 58.6222 85.42L62.9787 79.1731L70.541 80.0773C71.0257 80.1349 71.5043 79.9279 71.7935 79.5346C72.0828 79.1412 72.1384 78.6228 71.9385 78.1772L62.5351 57.2007L63.8716 56.8774C65.5605 56.4689 66.864 55.1656 67.2728 53.4765L68.0777 50.1507C68.184 49.7116 68.4437 49.3235 68.809 49.0579L71.573 47.0477C72.9816 46.0232 73.6884 44.318 73.4178 42.5971L72.8863 39.2191C72.8163 38.7735 72.907 38.316 73.1418 37.931L74.9253 35.0065ZM28.2873 81.9063L24.8349 76.9556C24.5487 76.545 24.0592 76.3253 23.5624 76.3851L17.5694 77.1017L26.1323 57.9997C26.2888 58.1148 26.4293 58.2527 26.545 58.4121L28.5552 61.176C28.7462 61.4386 28.9609 61.6766 29.1949 61.8886L24.6878 71.9427C24.3817 72.6258 24.6871 73.4275 25.3701 73.7337C25.5501 73.8145 25.7384 73.8527 25.9235 73.8527C26.4412 73.8527 26.9357 73.5544 27.1609 73.0515L31.6521 63.0331C32.094 63.0937 32.549 63.0927 33.0058 63.0208L36.3836 62.4894C36.5859 62.4576 36.7903 62.4605 36.9893 62.4934L28.2873 81.9063ZM68.4864 77.1014L62.4932 76.3851C61.9959 76.3255 61.5069 76.545 61.2207 76.9556L57.7683 81.9063L49.0626 62.4859C49.2452 62.461 49.4315 62.461 49.6157 62.4899L52.9924 63.0213C53.4676 63.0961 53.9411 63.0937 54.3998 63.0254L58.8943 73.0518C59.1199 73.5549 59.6141 73.853 60.1318 73.853C60.317 73.853 60.5053 73.8149 60.6852 73.7341C61.3682 73.428 61.6737 72.626 61.3675 71.943L56.8433 61.8506C57.0614 61.648 57.2632 61.4238 57.4431 61.1765L59.453 58.4133C59.5796 58.2391 59.7348 58.0898 59.9092 57.969L68.4864 77.1014ZM72.6108 33.5952L70.8275 36.5197C70.2589 37.4526 70.0389 38.5608 70.2087 39.6402L70.7402 43.0181C70.8519 43.7284 70.5599 44.4324 69.9786 44.8553L67.2145 46.8657C66.3298 47.5094 65.7006 48.4495 65.4433 49.5129L64.6384 52.8387C64.4696 53.536 63.9317 54.074 63.2343 54.2428L59.9085 55.0475C58.8449 55.3048 57.9047 55.9341 57.261 56.8189L55.2511 59.5822C54.8281 60.1639 54.1243 60.4555 53.4137 60.3436L50.0368 59.8121C48.9573 59.6423 47.8489 59.862 46.9158 60.4309L43.9919 62.2139C43.38 62.5868 42.6195 62.5868 42.0079 62.2139L39.0834 60.4308C38.3561 59.9872 37.5223 59.756 36.6786 59.756C36.4401 59.756 36.2004 59.7745 35.9627 59.812L32.5847 60.3434C31.8742 60.4553 31.1704 60.1632 30.7474 59.5818L28.737 56.8179C28.0933 55.9332 27.1532 55.304 26.0898 55.0467L22.764 54.2418C22.0668 54.073 21.5288 53.5351 21.36 52.8377L20.5552 49.5121C20.2979 48.4485 19.6688 47.5081 18.7838 46.8644L16.0207 44.8543C15.4392 44.4314 15.1475 43.7272 15.2593 43.0169L15.7908 39.6401C15.9606 38.5605 15.7409 37.4523 15.172 36.5192L13.389 33.595C13.0159 32.9831 13.0159 32.2227 13.389 31.611L15.1723 28.6865C15.7411 27.7536 15.9609 26.6453 15.7911 25.5659L15.2597 22.1881C15.148 21.4777 15.4399 20.7738 16.0212 20.3508L18.7853 18.3404C19.67 17.6967 20.2992 16.7566 20.5566 15.6932L21.3615 12.3674C21.5303 11.6702 22.0681 11.1322 22.7655 10.9634L26.0913 10.1586C27.1549 9.90129 28.0952 9.27208 28.7387 8.38722L30.7486 5.62396C31.1715 5.04245 31.8753 4.75035 32.586 4.86239L35.9629 5.39384C37.0426 5.564 38.151 5.34396 39.0839 4.77505L42.0077 2.99205C42.6196 2.61916 43.3802 2.61916 43.9918 2.99205L46.9163 4.77521C47.8492 5.34429 48.9578 5.56416 50.037 5.39418L53.415 4.86273C54.1252 4.75136 54.8293 5.04296 55.2523 5.6243L57.2627 8.38823C57.9063 9.27292 58.8465 9.90213 59.9099 10.1595L63.2357 10.9644C63.9329 11.1332 64.4709 11.671 64.6397 12.3684L65.4445 15.694C65.7018 16.7576 66.3308 17.6981 67.2159 18.3417L69.9791 20.3517C70.5606 20.7746 70.8524 21.4787 70.7405 22.1891L70.2091 25.5659C70.0392 26.6455 70.2589 27.7537 70.8279 28.6868L72.6108 31.611C72.9841 32.2229 72.9841 32.9833 72.6108 33.5952Z" fill="#47A209"/>
<path d="M58.8587 28.3863C58.56 27.4668 57.7781 26.8248 56.818 26.7109L48.663 25.7439L45.2233 18.287C44.8183 17.4092 43.9662 16.8638 42.9994 16.8638C42.0327 16.8638 41.1805 17.4092 40.7755 18.287L37.3358 25.7441L29.1808 26.7111C28.2207 26.825 27.4386 27.467 27.1401 28.3864C26.8415 29.3054 27.0968 30.2845 27.8063 30.9407L33.8355 36.5165L32.2351 44.5712C32.0468 45.5196 32.4157 46.4616 33.1979 47.0296C33.6294 47.3431 34.1301 47.5018 34.6341 47.5018C35.0437 47.5018 35.4553 47.397 35.8333 47.1853L42.9992 43.1744L50.1651 47.1853C51.0088 47.6577 52.0185 47.598 52.8007 47.0298C53.583 46.4616 53.9518 45.5194 53.7634 44.5712L52.1629 36.5166L58.1922 30.9409C58.902 30.2847 59.1573 29.3057 58.8587 28.3863ZM49.7659 35.0417C49.4198 35.3617 49.265 35.8385 49.3567 36.3008L50.9944 44.5432L43.6612 40.4385C43.4556 40.3235 43.2275 40.2659 42.9992 40.2659C42.771 40.2659 42.543 40.3233 42.3373 40.4385L35.0041 44.5432L36.6418 36.3008C36.7338 35.8384 36.5788 35.3617 36.2326 35.0417L30.0628 29.3358L38.4085 28.3463C38.8764 28.2909 39.2821 27.9961 39.4796 27.5683L42.9994 19.9373L46.5192 27.5683C46.7167 27.9961 47.1222 28.2909 47.5903 28.3463L55.9357 29.3358L49.7659 35.0417Z" fill="#47A209"/>
</g>
<defs>
<clipPath id="clip0">
<rect width="86" height="86" fill="white"/>
</clipPath>
</defs>
</svg>
